/* XPM */
static char *result[] = {
/* columns rows colors chars-per-pixel */
"64 64 125 2 ",
"   c #0E0E0E",
".  c #141414",
"X  c #1D1D1D",
"o  c #351314",
"O  c #3A1414",
"+  c #3A1D1C",
"@  c #3E1F20",
"#  c #242424",
"$  c #2B2525",
"%  c #282827",
"&  c #272728",
"*  c #282728",
"=  c #272828",
"-  c #292929",
";  c #342525",
":  c #3A2626",
">  c #322B2A",
",  c #3A2B2B",
"<  c #33332C",
"1  c #3D332E",
"2  c #37382B",
"3  c #3A3C2E",
"4  c #343430",
"5  c #373932",
"6  c #3B3D33",
"7  c #383C38",
"8  c #461515",
"9  c #491717",
"0  c #431C1B",
"q  c #4B1C1B",
"w  c #541B1B",
"e  c #5C1D1D",
"r  c #621D1D",
"t  c #55201F",
"y  c #452424",
"u  c #4C2323",
"i  c #422C2C",
"p  c #4B2D2C",
"a  c #532423",
"s  c #5C2222",
"d  c #532B2B",
"f  c #5B2C2B",
"g  c #47362C",
"h  c #433130",
"j  c #4C3332",
"k  c #563736",
"l  c #5B3433",
"z  c #642323",
"x  c #6B2424",
"c  c #652B2A",
"v  c #6B2B2B",
"b  c #722525",
"n  c #792727",
"m  c #702827",
"M  c #732D2C",
"N  c #7C2D2C",
"B  c #6A302F",
"V  c #74302F",
"C  c #643634",
"Z  c #6C3433",
"A  c #633837",
"S  c #673938",
"D  c #6B3A39",
"F  c #743332",
"G  c #7C3433",
"H  c #7C3837",
"J  c #753A39",
"K  c #7B3D3B",
"L  c #3E4133",
"P  c #3E4439",
"I  c #434432",
"U  c #454B34",
"Y  c #4A4E36",
"T  c #40443B",
"R  c #464B3E",
"E  c #484D38",
"W  c #564039",
"Q  c #4D533C",
"!  c #51553E",
"~  c #79403F",
"^  c #4D5440",
"/  c #4F5748",
"(  c #525742",
")  c #545B44",
"_  c #595D45",
"`  c #565C4A",
"'  c #5C5E4B",
"]  c #57614C",
"[  c #5D654C",
"{  c #5F694F",
"}  c #5D6451",
"|  c #5F6A51",
" . c #616250",
".. c #636C55",
"X. c #676E59",
"o. c #6E7B66",
"O. c #822C2C",
"+. c #892F2F",
"@. c #802F30",
"#. c #843534",
"$. c #8B3332",
"%. c #833837",
"&. c #8D3937",
"*. c #833B3B",
"=. c #8C3B39",
"-. c #933635",
";. c #9B3837",
":. c #923D3B",
">. c #9C3939",
",. c #A33F3E",
"<. c #A83F3E",
"1. c #8C413F",
"2. c #A3403F",
"3. c #A8403F",
"4. c #834341",
"5. c #8C4140",
"6. c #924241",
"7. c #9D4140",
"8. c #964847",
"9. c #9C4847",
"0. c #A24745",
"q. c #AE4343",
"w. c #AD4B49",
"e. c #B04948",
"r. c #728068",
/* pixels */
". . X X X X . . X X X X X X X X X X X X X # X X # X X # # X X X # X X X # X # X X # X X X # X X X X X X X X X X X X X . X X . X ",
". X X . . X # X X X X X X X X # X # # X # X X # X # X # X # # # X # # # X # # # X # # X # X X # # X X # X X X X X X X X X X X X ",
". X X X X X X X X X X X X # X # X X # X # # X X X # # # # X # # # # ; y : # X # # X # X # # X X # X # X # X # X X X X X X X X . ",
"X X X X X X X X # X # X X X X # # X # # X # # # # # X # # # # # $ u e x M f # # # X # # X # # # # X # # X # X X # X # X # X X X ",
"X X X X X # # X X # X # # X # # # # # X # # # # # # # # # # # # u x r e q a ; ; : > $ # # # # # # # # # # X X # # X X X X X X X ",
"X # X X # X X X # X # X # # X # # # # # # # # # # # # # & # # $ s r w 8 O + d a f F f & # # # # X # # # # # # # X # # # # X X # ",
"X X X X X # # # # X # # # # # # # # # # # # # # # # # # # # # y x x q O o y u o s %.F > # # # # # # # # # # X # # # # X X # # X ",
"X # # # # X X # # # # # # # # # % # & # # # % # # # & % & % % d M t a 8 o a 0 O v G %.i # # & # & # # # # # # # # # # # # X # # ",
"# X X # # # # # # # # # # & # # # # & & # & # % # % # % & & $ V #.z x e 0 a + u f z s p p , & # % & # # # % # # # # # # # # # # ",
"X # # # # # # # # # % # # # # - % # % # % & % % - & & % & & , G %.V N x q a c F q q 9 t s s ; & # # & % & # % # # # # # # # # # ",
"# # # X # # # # # # # # - # - # & % % % % % % & - & & - & & , H v G %.u 0 s :.H 0 0 t w w q a : & & # & # & # & # & # # # # # X ",
"# # # # # # # # # # # - # # - - & # % & & - & & & - & & & & , V c V a u v F %.l u a q w e m m d - & % % % & - # # $ & # # # # # ",
"# # # # # & # % - # # # - # - # & - % % - & - - - % - - - - > v G V u #.-.O.H c v Z B t x m G Z - & - - % # - - & # & # & # # # ",
"# # # # # # - # # - - - - - - - - % & - & - - - - - - - - - : x G Z M <.;.n N #.M %.V z z z *.J > % & % & % - # & % - & # & # & ",
"- # # # # - & # - - # - - # - - - - - - - - - - - - - - - - y b F S =.,.$.+.N &.N *.v z V v v *.j & - % % - - & - % % # - # & % ",
"# # # # % # - - # - - - - - - - - - - - - - - - - - - - - - y x V F +.$.-.+.b @.n %.f w M Z s =.4.> - - - & % % - & & % % & - # ",
"& # # - % - # - = = - - = - - - - - - - - - - - - - - - - - : b G F b n O.b e M n N M v J *.V #.6.k & - - - - - - - & - & % % % ",
"# - - # # - - - = - = - - - - - - - - - - - - - - - - - - - > x @.V s s r e 9 c x b G c G *.G N &.S - - - - - - - - - & - & % % ",
"% - # & - - - - - - - - - - - - - - - - - - - - - - - - - - - u @.V r z x q + a s r @.M s c *.8.*.j & - - - - - - - - - & & & % ",
"- # - - & - - # - - - - - - - - - - - - - - - - - - - - - - - > c n e z x c @ 0 z x $.V w x =.5.A - - - - - - - - - - & - & & & ",
"% & # - - # - - - - - - - - - - - - - - - - - > - - - - - - - - y z q w e r v q r x b M V =.#.Z 1 & - - - - - - - - - - - & - & ",
"# - - & % - - - - - - - - - - - - - - - - - - - - - - - - - - - f V f q w w v G q q 8 w Z 6.*.f > & - - - - - - - - - - - - % - ",
"- - - - - - - - - - - - < - - - - - - - - - - - - - - - - - - 2 g J H t w w w x Z y 0 q s H 6.~ k - - - - - - - - - - - - - - - ",
"- - - - - - - - - - - - - - - - - - - - - - - - - - - - - - < 2 > Z =.m w q q 9 z *.H #.-.$.J D ~ > - - - - - - - - - - - - - - ",
"- % & - - - - - - - - - - - - - - - - - - - - - - - - - - - 2 < - l %.$.#.d u w q c *.:.3.>.%.-.H 4 - - - - - - - - - - - - - - ",
"& - - - - - - - - - - - - - - - - - - - - - - - - - - - - - 2 < $ p F -.-.C 1 B +.m c H 2.q.2.7.S - - - - - - - - - - - - - - - ",
"& % - - - - - - - - - - - - - - - - - - - - - - - - - - - - 3 L P 1 v :.=.K g - C =.$.-.e.w.0.S - - - - < - - - - - - - - - - - ",
"- - - - - - - - - - - - - - - - - - - - - - - - - - 4 7 - R Y ....` W 1.5.4.l - > l H 5.9.4.l > - - - - - - - - - - - - < - - - ",
"% & - - - - - - - - - - - - - - - - - 4 - - - - - 7 _ ' ` X.! { } | } p f F D , - - , h h 4 - - - - - - - - - - - - - - & - - - ",
"- - - - - - - - - - - - - - - - - - - - - - - - & 4 ^ '  .X.( { | X.o.7 $ ; i - - - - - - - - - - - - - - - - - - - - - - - - - ",
"% - - - - - - - - - - - < - - - - - - - - - - - = - P ( ' ..) _ | | r.T & - $ - - - - - - - - - - - - - - - - - - - - - - - - - ",
"& - - - - - - - - - - - - - - - - - - - - - - - - - - 7 Q ' ) E Q ( [ T - - - - - - - - - - - - - - - - - - - - - - - - - - - - ",
"- - - - - - - - - - - - - - - - - - - - - - - - = = = L ! ) U Y ( ( ` ` 6 - - - - - - - - - - - - - - - - - - - - - - - - - - - ",
"- - - - - - - - - - - - - - - - - - - - - - - - = = 4 Q _ Q Y U Q ( ) ) P % - - - - - - - - - - - - - - - - - - - - - - - - - - ",
"- - - - - - - - - - - < - - - - - - - - - - - - = - L ) ) U U U Q ^ ` [ R & - - - - - - - - - - - - - - - - - - - - - - - - - - ",
"- - - - - - > - - - - - - - - - - - - - - - - - - - U ] ! U U Y 3 - 5 / ) < - - - - - - 4 - - - - - - - - - - - - - - - - - - - ",
"- & - - - - - - - - - - - - - - - - - - - - - - - - P ] ! U P L 4 - - - 4 - - - - - - - - - - - - - - - - - - - - - - - - - - - ",
"- - - - - - - - - - - - - - - - - - - - - - - - - - < } ] L < I < - - - - - - - - - - - - - - - - - - - - - - - - - - - - - - - ",
"= - - - - - - - - - - - - - - - - - - - - - - - - - & ` ( - - U < & - - - - - - - - - - - - - - - - - - 4 - - - - - - - - - 4 = ",
"= & - & - - - - - - - - - - - - - - - - - - - - - - & 4 5 & < g - - - - - - - - - - - - - - - - - - - - = - - - - - - - - - - - ",
"= = = - # - - - - - - - - - - - - - - - - - - - - - - - - - 2 6 - - - - - - - - - - - - - - - - - - - - - - - - - - - - - - - - ",
"= = - - - - - - - - - - - - - - - < - - - - - - - - - - - - 2 6 - - - - - - - - - - - - - - - - - - - - - - - - - - - - - - - - ",
"& & = - - - - - - - - - - - - - - - - - - - - - - - - - - - 4 3 - - - - - - - - - - - - - - - - - - - - - - - - - - - - - = - - ",
"& & # - # - - - - - - - - - - - - - - - - - - - - - - - - - < 6 - - - - - - - - - - - - - - - - - - - - - - - - - - - - - - = - ",
"# - & & - = - * & - - - - - - - - - - - - - - - - - - - - - < 3 - - - - - - - - - - - - - - - - - - - - - - - - - - - * - & - = ",
"& # & & - - = $ - = - - - - - - - = - - - - - - - - - - - # 2 L - - - - - - - - - - - - - - - - - - - - - - - - - = - = = - & & ",
"# & # $ & & = = = - = = - - = # X X = - - - - - - - - - - - < I - - - - - - - - - - - - - - - - - - - - - - - - - * = = & & & & ",
"# & & # & & & & - = = = = = X X X . X - - - - - - - - - - - < I - - - - - - - - - - - - 4 - - - - - - - - * = - & - = = & & & & ",
"# # - # # $ & % # & & & - # . X . . . X & - - - - - - - - - < I - - - - - - - - - - - - - - - - - - - - - & - & - & % # & & % # ",
"# # - # - # % & & & # % - # X X . . X # - - - - - - - - - - < I - - - - - - - - - - - - - - - - - - - - & & & - % % % - % # # & ",
"# # # # # - # # % # # # % # # # # # & - - & - - - - - - - - ; Y < - - - - - - - - - - - - % - - - = - - $ & & & # - # # % - # & ",
"# # # # # # # # # # # # # # # # # X # - & - % & - - - - % % > I - - - & - - - & - - - & - & & - * - & - & & & & & # & % # # # # ",
"# # # # X X X X X . . . . . . . . .   . & - - - % & - - - - - U < - - - & - % % % & - % - - - & & # - - # $ & # # # # # # # # # ",
"# # # X . X X X X X X . . . . . . .     # # # - % % - - & - % I - & - & - & & - & % # % # % # - = - # - # = & # # # # # # # # # ",
". # X X X X . . . . . X . . . .     . X . . . . . . . . X . # 3 - % % % % % & - # % & & - - % # # - # # # # # & # # # # # # # # ",
"X . . X . X . X . . . . .   .       . # # % # # # X # X X X # % % & & # & - # # & % # % # & # # # # # * & # # # # # # # # X # # ",
"X . . X . X X . . . .   . .           # # # # # # & % # % & # # % % # % # % # & # # % # # & # # # # # # # # # # # # # X # # X # ",
"X . X . . . . . X . . . .   .         # # # # # % # # # # # # # # # # # % # # # # # # # # # # # # # # # # X # # # # # # # X # X ",
". X X . X . . . . . . . .           . X # # # # # # # # # # # # # # # # # # # # # # # # # # # # # # # # # # X # # # X X X # X X ",
". . . . . . . . . . .             . X # # # # X # # # # # # # # # # # # # # # # # # # # # # # # # X # X # X # # X X # X # X X X ",
". . . . . . . . . . .     .     . X # # # X # # # # # # # # X # # # X # # # # # # # X # X # # # # # # X # X # X # X X # X # X X ",
". . . . . .   .           . X X X # # X X # X X # X # X # X # X X X # # # X # X # X # X # # X X X X # X X X X X X X X X X . X . ",
". . . . .   .     . . . X X X X X X X # # X X # X # X X X # # X # X # X X # X X X # X # X X # X # X X X X # X X X . X X X X X . ",
"X . . . .     . . . X X . X X X X X X X X X X # X X X # # X X X # X X # X X X # # X X X # X X X X X X X X X X X X X X . X . X X "
};
