/* XPM */
static char *result[] = {
/* columns rows colors chars-per-pixel */
"64 64 141 2 ",
"   c white",
".  c #F4F3F1",
"X  c #63676B",
"o  c gray99",
"O  c #F9F9F9",
"+  c #F1F1F0",
"@  c #E8E6E3",
"#  c black",
"$  c #FDFEFE",
"%  c #FFFFFE",
"&  c #696A6C",
"*  c #F7F7F6",
"=  c #58585A",
"-  c #57514D",
";  c #4D4E4F",
":  c #E1E2E3",
">  c #3B3735",
",  c #45403D",
"<  c #514C49",
"1  c #454748",
"2  c #CBCAC9",
"3  c #414445",
"4  c #5C5D5F",
"5  c #E2EDFB",
"6  c #DCDAD9",
"7  c #0C0B0D",
"8  c #B0A190",
"9  c #697075",
"0  c #EFEEED",
"q  c #716C69",
"w  c #ECEAE9",
"e  c #BEBDBE",
"r  c #333232",
"t  c #5D5754",
"y  c #4B4A4A",
"u  c #626364",
"i  c #555B63",
"p  c #A2A8AF",
"a  c #DADEE1",
"s  c #C5CBD3",
"d  c #F8FBFD",
"f  c #7A7C7E",
"g  c #F3F5F6",
"h  c #535354",
"j  c #E4E8ED",
"k  c #494644",
"l  c #D6D4D4",
"z  c #3E3D3D",
"x  c #79848C",
"c  c #B0B7C0",
"v  c #F5F7FA",
"b  c #958C87",
"n  c #E3DFDC",
"m  c #EBEEF2",
"M  c #68645F",
"N  c #635D58",
"B  c #BBB5B0",
"V  c #A5A09B",
"C  c #98938F",
"Z  c #4C4743",
"A  c #252527",
"S  c #B3BECA",
"D  c #92989E",
"F  c #7C736D",
"G  c #9FADBA",
"H  c #DFE9F6",
"J  c #D9E3F0",
"K  c #BDBAB8",
"L  c #D2CFCF",
"P  c #574E47",
"I  c #797775",
"U  c #A4A4A5",
"Y  c #C1CDDB",
"T  c #353638",
"R  c #373A3A",
"E  c #ABB2B9",
"W  c #BBC1C7",
"Q  c #8D9297",
"!  c #D1D6DA",
"~  c #99A5AF",
"^  c #CBD1D8",
"/  c #664F4C",
"(  c #D4DDEA",
")  c #EFF2F5",
"_  c #454341",
"`  c #817E7C",
"'  c #515458",
"]  c #ABA9A8",
"[  c #877C74",
"{  c #2D2D2E",
"}  c #B5ACA6",
"|  c #8B8782",
" . c #9D9186",
".. c #454544",
"X. c #18171A",
"o. c #6D767E",
"O. c #474D4F",
"+. c #808C97",
"@. c #9DA0A5",
"#. c #816E5B",
"$. c #BCAF9F",
"%. c #D8CFC7",
"&. c #B5B3B3",
"*. c #DBD7D3",
"=. c #C7C4C1",
"-. c #9B9B9C",
";. c #595452",
":. c #7D7A77",
">. c #AFAEAD",
",. c #615954",
"<. c #737D87",
"1. c #50575C",
"2. c #C2C4C6",
"3. c #A9B4C0",
"4. c #969CA5",
"5. c #C5B9A9",
"6. c #928177",
"7. c #806662",
"8. c #7F5C59",
"9. c #AC9B88",
"0. c #C8D3E1",
"q. c #969594",
"w. c #6D615E",
"e. c #6C5750",
"r. c #8B98A8",
"t. c #BAC6D5",
"y. c #848384",
"u. c #737579",
"i. c #70675F",
"p. c #C7BEB3",
"a. c #59646C",
"s. c #868990",
"d. c #A3978D",
"f. c #CEC5B9",
"g. c #8B8989",
"h. c #412926",
"j. c #5D3D3A",
"k. c #EBF2FA",
"l. c #D3CAC0",
"z. c #8A6D6A",
"x. c #F467FC",
/* pixels */
"# # # # # # # # # # # # # # # # # # # # # # # # # # # # # # # # # # # # # # # # # # # # # # # # # # # # # # # # # # # # # # # # ",
"        $ o                                                                                                                     ",
"        o j d                                                                                                                   ",
"          ) H d                                                                                                                 ",
"          % j H d                                                                                                               ",
"            o j H d                                                                                                             ",
"              v ( 5 v o d v o                                                                                                   ",
"              % g ( S 0.H H v                                                                                                   ",
"            $ ) J J Y r.t.k.%                                     + 0                                                           ",
"            v ( 0.J H Y r.s d                                 * 6 2 e : %                                                       ",
"            $ m ( J 5 5 t.+.s O                             * ! j * a W :                                                       ",
"                g J H 5 5 S <.W g                           ! c m a c Y 2.*                                                     ",
"                  * j H 5 5 E 9 p m                       % e <.~ x a.G >.@                                                     ",
"                    o m H k.o e u p d                     % K & X X i o.C @                                                     ",
"                      $ g g     2 [ e d                   $ } X Q D <.f  ..                                                     ",
"                                  *.[ &.v                 o V & x x o.p } O                                                     ",
"                                    6 6.>.v               * b X 4 ..1 :.B                                                       ",
"                                    % n 6.] )         o w K & X ; R 3 4 ` : o                                                   ",
"                                        @ b V j     . l 2 e s.u ; r z i i 4.e a $                                               ",
"                                        % w  .C j + a m O g s Q 1 A T 4.S Y 0.c l %                                             ",
"                                            + d.b s m O a ! a a D a.x J s ~ 3.( e @                                             ",
"                                            % *  .| ^ c S s m o : G G Y ~ <.x G s =.$                                           ",
"                                              o E :.| @.Q E : 2.v ^ G S t.G 3.9 3.>.+                                           ",
"                                              + D 4.q V D p @.Q : ! +.S c Y ~ r +.c 6                                           ",
"                                              : p W y.f 1 ' @.E c ~ a.x G W ; 7 i S 2 $                                         ",
"                                            $ >.s.^ q.< z Z F Q f o.O.1.+.s h X.R r.p 2                                         ",
"                                            . C D E & Z Z < e.d.` u 3 3 9 p 4 f 3 o.u.V o                                       ",
"                                            + C 9 i , < Z z P #.8 I 3 ..& f ; l u A A  .w                                       ",
"                                            @ i.1 z Z ,.- < N - #.8 M < & & & * U X.r F l.                                      ",
"                                            @ N > k N q w.,.N t P #.8 F 4 4 C % : 4 4.t p.                                      ",
"                                            O V | e l n C - - P P P #.8 F - p.  L & s f B                                       ",
"                                              $ $     + I T z 1.& u.u [ 8 [ V   2 4 ^ p & 2                                     ",
"                                                      l = { r 3 ' i i X F 8 d.w 2 9 ^ 9 R I g                                   ",
"                                                      U 3 { r z 1 O.3 O.& i.9.n 2.s.W O.< F 0                                   ",
"                                                    + & T R 3 1 ; ; 3 1 = ,.#.8 ] c ^ I i.B $                                   ",
"                                                    : X O.= y ; h ; ..1 y - N , t X D } 6 o                                     ",
"                                                  $ U 1.E U X I = h y < ; 1 y T k k N B                                         ",
"                                                  $ D +.! 9 W ^ 4 T A { r 3 1 t ;.- w.B o                                       ",
"                                                  m ~ s : Q @.h T y 7 7 7 A 1.| } L =. .%.o                                     ",
"                                                  j 3.! j f X.7 U + = 7 7 7 { @.K O   *.9.%.o                                   ",
"                                                  6 p 2.-.A 7 ..0   e X.7 X.r f B +     n 9.l.O                                 ",
"                                                  *.& y _ k { -.    O I A z , M l %     % @ 8 f.O                               ",
"                                                  6 u 1 ..- t n       l < , Z M *.        % @ 8 p.*                             ",
"                                                  *.u ' y - b $       O :., < t U $           0 8 5.*                           ",
"                                                  K 4 4 h t K           U > _ - | *             + $.5..                         ",
"                                                $ y.' 4 h N 6           L , , = -.w               . $.$..                       ",
"                                                O u.' i h q +           : - k h y.w                 O 5.$.0                     ",
"                                                * f 9 o.= q 0           . M > , q +                   o f.%.                    ",
"                                                0 9 x x X M w           + t > > q 0                     % O                     ",
"                                                0 q = h ; ` O           + 4 > , q +                                             ",
"                                                O ` Z , z q.              ] > , q +                                             ",
"                                                O ` < _ _ g.              @ ;.> M 0                                             ",
"                                                o b - y k -.              o :.> t @                                             ",
"                                                  ] < k ; 2                 g.> = L                                             ",
"                                                  =.- k = :                 V > X &.$                                           ",
"                                                  6 ;.z u 0                 q.r < 7.n                                           ",
"                                                  w N _ u 0                 &.r h.j.z.%.                                        ",
"                                                  6 = ; = :                 O =.F h.j.7.@                                       ",
"                                                  2 X 9 4 2                     . C / / L                                       ",
"                                                  &./ w.;.K                       $ @ 6 *                                       ",
"                                                  } 8./ [ 0                                                                     ",
"                                                . 6.8.e.B                                                                       ",
"                                                n 7.8./ L                                                                       ",
"                                                . b e.b *                                                                       "
};
