/* XPM */
static char *result[] = {
/* columns rows colors chars-per-pixel */
"64 64 21 1 ",
"  c red",
". c #F81F1F",
"X c #FEE5E5",
"o c #FCCCCB",
"O c #F83132",
"+ c #FFF7F6",
"@ c #FFFDFD",
"# c white",
"$ c #FB0303",
"% c #F91111",
"& c #F75B5A",
"* c #FEF0EF",
"= c #F88080",
"- c #F87272",
"; c #FAA4A4",
": c #F84F4F",
"> c #FDD9D8",
", c #FA9493",
"< c #FAB1B1",
"1 c #F94040",
"2 c #FBBEBE",
/* pixels */
"################################################################",
"################################################################",
"################################################################",
"################################################################",
"################################################################",
"################################################################",
"################################################################",
"########################@+*XXXX*+###############################",
"#####################*o;-&1OOOO1&=<>+###########################",
"##################+>,:.$$         $.&;>@########################",
"################@o-.$  $  $      $   $O=>#######################",
"###############X=.   $              $  $O,*#####################",
"#############@21$ $                      $&o####################",
"############+,.                          $$O<@##################",
"###########*=% $            $$   $          .;@#################",
"##########+=%            $%:--1%             .;@################",
"#########@,%            $:2*@@*<O$           $.<#@##############",
"#########<.             :X###@#@>O$           $Oo###############",
"########>1$            .o#######@<%            $&*##############",
"#######@-$         $   -@########*1             $,##############",
"#######2.             $,#########@-              O>#############",
"######+&$            $$,#########@-              $=@############",
"######o.              $-#########+:               OX############",
"#####@=$             $ :+#######@XO              $$;############",
"#####XO                OX########o%               $&+###########",
"#####2%                %o########;$               $.>###########",
"#####,$                $;########=$                $<###########",
"####+&                 $-#######+:$              $ $=###########",
"####*1                  :+######XO                 $&+##########",
"###@X.              $  $OX######o%                  1*##########",
"####>.                  %o######;$                  1*##########",
"####o.                 $$;#####@=$                  OX##########",
"####o.                  $-#####+: $                 OX##########",
"###@>.                   :+####XO                   OX##########",
"####>.                   OX####o.                   1*##########",
"####*O                  $%o####;$                  $&+##########",
"####+& $                 $;####= $                $$=@##########",
"#####=$                  $=###+&$                $ $;###########",
"#####<%                   :+##XO                   .o###########",
"#####>O                  $.o##<%                 $ :*###########",
"#####@-$                  $:o21$                  $,############",
"####@#<%                   $%%                  $ .>############",
"######*:$                  $$$                   $-+############",
"#######<%                 $:,,1$                 .o#############",
"#######*&$               $&X##>O $              $=@#############",
"########o.               $;#@@#=$              $1X#@############",
"#########;%              $;####=$              .2###############",
"########@+-$             $&*##>1$          $  %,@###############",
"##########X&$             $&;,1$             $=+#@##############",
"###########*&$             $$$             $%=*#################",
"############*-%              $             %,+##################",
"############@+,.          $             $$O<@###################",
"#############@@o&%                      %->#@###################",
"##############@#*;:%$          $ $   $%&2+######################",
"##################*<&.$$         $$%O-2+########################",
"####################+>;-:O.%%%%.O:=<X@#@########################",
"########################*X>o22o>X+@#@@##########################",
"#########################@@#####@@##############################",
"################################################################",
"################################################################",
"################################################################",
"################################################################",
"################################################################",
"################################################################"
};
