/* XPM */
static char *_e9f2c8caac34abafe25b401558d9401ZATWuarlatUC14Bq[] = {
/* columns rows colors chars-per-pixel */
"64 64 117 2 ",
"   c black",
".  c #131406",
"X  c #1E1D11",
"o  c #9A9785",
"O  c #0D0D04",
"+  c #100F06",
"@  c #1A180E",
"#  c #030401",
"$  c #060602",
"%  c #0A0903",
"&  c #161608",
"*  c #282910",
"=  c #232115",
"-  c #676552",
";  c #1E1E0A",
":  c #1A1A08",
">  c #5F5C4B",
",  c #333122",
"<  c #2F2D1F",
"1  c #2B2A1A",
"2  c #63614F",
"3  c #9E9A88",
"4  c #383527",
"5  c #272519",
"6  c #23230E",
"7  c #585645",
"8  c #969380",
"9  c #8D8A77",
"0  c #74715F",
"q  c #403D2E",
"w  c #84816E",
"e  c #807E6B",
"r  c #898774",
"t  c #A19E8C",
"y  c #93907D",
"u  c #6B6856",
"i  c #4E4C3B",
"p  c #4B4839",
"a  c #908D7B",
"s  c #A7A492",
"d  c #716F5A",
"f  c #868372",
"g  c #15130B",
"h  c #797664",
"j  c #7D7A68",
"k  c #B3B1A0",
"l  c #444232",
"z  c #484635",
"x  c #555341",
"c  c #A3A190",
"v  c #524F3E",
"b  c #5D7C2C",
"n  c #4C6B1D",
"m  c #C7C5B6",
"M  c #37520C",
"N  c #B0AE9D",
"B  c #373A1D",
"V  c #BAB7A8",
"C  c #5C5947",
"Z  c #ABA99A",
"A  c #446216",
"S  c #C3C0B0",
"D  c #3C3A29",
"F  c #BDBBAB",
"G  c #6E6B5A",
"H  c #1F2907",
"J  c #2F3314",
"K  c #B6B4A4",
"L  c #77765F",
"P  c #AEAB98",
"I  c #474A2A",
"U  c #AAA893",
"Y  c #304A08",
"T  c #233505",
"R  c #557424",
"E  c #658434",
"W  c #404225",
"Q  c #3B580E",
"!  c #ABC788",
"~  c #739142",
"^  c #626148",
"/  c #B5D094",
"(  c #364216",
")  c #CDCCBD",
"_  c #809953",
"`  c #5C603E",
"'  c #87A05B",
"]  c #565939",
"[  c #2A3E07",
"{  c #9EA681",
"}  c #3E491D",
"|  c #939B75",
" . c #D4D5C5",
".. c #52622D",
"X. c #3E5C0F",
"o. c #8EA964",
"O. c #A1BD7C",
"+. c #4E5133",
"@. c #CCE8B1",
"#. c #798F50",
"$. c #64783C",
"%. c #D8F3C0",
"&. c #878C69",
"*. c #7E8260",
"=. c #5D6F35",
"-. c #BBD99B",
";. c #686A4A",
":. c #BCD79F",
">. c #879B66",
",. c #42531C",
"<. c #98B372",
"1. c #C2E0A4",
"2. c #6D764C",
"3. c #708645",
"4. c #AEBA90",
"5. c #8D936F",
"6. c #C6D0AA",
/* pixels */
"        $ & & . . $                                   # $ # # #   # + @ @ % # # $ # # % @ 1 & + ; 6 X , 1 . O & & O $ # $ % % # ",
"      # . : & + : & % #                               $ % # O 5 p 2 f j r f i + # # # # O : . O ; v r o d 1 % + O O + $ # % $ # ",
"    # + & : & . : : : O                               # $ < a s k m S S k P m e q X , < @ . O % x U K N s 0 X + % % $ % + % # $ ",
"    $ & & : : + . . ; &                               # q s  .) S k F N 9 o k K V Z t U y 7 X < f c o P k o q $ % % O : & $ # $ ",
"    # . + + & % % % % $                   # #   $ g 5 7 Z V  .) F S K y o N U a 3 F k K K a > 7 j y r 9 c e l O % $ $ + & + O $ ",
"$     $ % O : & . %         #     g 5 @       4 a c s P F m ) m V F k a 3 U 3 8 s 3 s k k o 0 C h e G f r G l % % $   % O $ #   ",
"#       $ & ; ; : %       # # $ 2 Z N r 5   p K ) m S S K F )  .) F t r t Z V o a K V ) K 8 v i j r o o h > 4 # % % $ . %       ",
"        # : : ; ; O           i V S F Z v q N ) S S F m V V m ) ) N w f P m t a c S ) m S s u z h w 0 u G 7 l $ % O % . . #     ",
"        # & : ; 6 .         g 9 V V K s d c k t t U F V F K k 3 a , q x 2 2 2 Z V V K c Z s N r y C @ u r j z % % O . ; & #   # ",
"        # : ; ; 6 : #       5 Z K o F k u c r 3 t N m S s - q 5 = = q > j G G G w V K y a s N r 8 0 - c 3 e l % % % + * :     $ ",
"        # : ; 6 * : $   #   4 K a o c e G k 9 o 3 N K f < @ , - e e f a o 9 c 3 Z 3 P o w s o y t e o 8 e L D $ % % + * &     # ",
"        # ; 6 6 * : %       < Z f 9 c Z F Z y k U s C @ < j s  .S c t c y i G K F S s y 8 o 9 r w C w w 0 r q $ % $ + * +   # # ",
"        $ 6 * * * ; %   #   < c w p 3 )  .3 r U o p O 7 N V m m S U d h K h < y N F S P 3 9 0 - > u e e e a D $ % $ . B O     # ",
"        $ 6 * * * ; O   # # , V N t P K S a h 9 l O l K m F 8 F ) m e c m a = w N V V V P o y 9 w e w w r 8 D # % $ + B +       ",
"        $ 6 * * * 6 O   #   l Z t V F S F u e z % , k ) Z m Z S S S t Z Z v @ d t N P K P 8 t k t w 9 9 r 9 4 $ % $ % 6 $       ",
"        $ 6 * * * 6 + # #   l r 9 P N s 3 2 - + , Z ) V y S m S y 3 s 9 - = X h t U t 3 c 3 s P 8 9 8 8 9 8 4 $ % % % X #       ",
"      # $ ; 6 * * 6 . # $   p w a U k k P a < + 0 m K F o K m F > t 3 e 2 @ D j w o s c P c 3 8 8 8 t o U k q % % % # +         ",
"#     # $ ; 6 * J * : % $ $ i w 3 P k m m u + l a m s o o s m 9 q 8 k r C + 7 G r k o c 8 a 8 P P F S K U e 1 O O %             ",
"#       $ ; 6 * J 6 : % $ % > P t P m  .m 4 = a N N 8 9 t o ) P y U Z e q = - j 9 j j o r o o k N ) k a > 1 + + O $ # $ % #     ",
"        $ ; 6 * * 6 : % $ % f S P k N Z 0 g > s S s 3 o Z 3 k S m U a 0 = p 8 L j 7 i 9 a 9 o w > t a 7 @ % + + O + $ $ . & + = ",
"        # : ; 6 6 6 : O # g V  . .m U h , g f s P c u f c o y o r r f u 4 G G o 8 p @ G 9 h y a r t 3 h , + X g O % # $ % . D ` ",
"$ #     $ : ; 6 ; ; 6 . # @ r t N o l 1 X @ u o k y = i 9 y w e e y o 9 0 0 - 8 C @ X > 9 r h L 3 r j - 1 + X . O $     # # J B ",
". & . + O : ; 6 ; ; 6 : X = p V t j 5 @ G w r t S r 1 5 - 0 e y c K k a - r o y D g v d 3 c f L w j - C @ O & O % O % $ % % ; ; ",
"; * * * 6 ; ; 6 6 * * 6 B < v  .s - = X f V 8 3 S k f C x 4 7 - > 7 > h u - - y < X - h r L 0 u j o > z @ % X + O 6 * ; X , W W ",
"+ + & * * ; : ; * J J < B * > m 3 i @ X 0 a 8 U F y h t w 7 > > > - j p @ 7 o Z u - L u - > 2 C h r C 4 g % = + % B I +.` ` ` ` ",
"& + : * 6 X ; * J W d &.*.z e m t v @ 5 0 9 o y c c c N 9 x u w r 0 C = q 8 K P f f j d - 2 u - e a 2 4 + $ @ + % I ;.;.^ ] +.+.",
"u ^ u d *.*.L | | | U U { | 3 F Z i + = u 8 o w 3 ) N o 9 h w 2 l e t a h L j e i d 2 d d - x d a 9 d 4 g $ g + % 7 d I 6 6 5 1 ",
"| 5.| &.5.{ F / 4.U 6.@.{ { U m Z D + X d y a w r c 0 r G z , < C Z k V k P a h = l ^ L L - i - 3 3 0 4 + $ + O $ , , + % + $ + ",
"*.&.&.*.*.5.| &.&.| { | *.&.P P f 5 + X 0 a f d 2 c d x < 4 z j Z V S t f U 8 - 5 , 2 d d x C - c s d 4 + $ % % $ $ % % $ $ $ $ ",
"W I W W +.` ` ] ` 2.;.I W ` s y > 1 + X h o j 2 r o < , G r e 8 8 3 P c 0 w t u 1 < d e j C v q Z t C < O $ % % $ % O % % % % O ",
"W W ] ] ` ` ` ;.2.{ &.2.W +.U P - < + , 9 y 9 d s 9 , C e j r h L a 8 9 h r 3 0 = 4 G e e - p , U h x , + % O O $ . & + + + . & ",
"J J B W B 1 1 W +.] I B B D s U 0 X + z 9 h e - e o 2 e w C - 2 2 u - 0 j a y r 0 0 r 8 e ^ 7 x K t 2 , + % % % % & : & & . + & ",
"J J J B W W W *.` W W W B I N t ^ X g 2 3 j w C > f e f j i p i v > v - a c r t s 3 U U j - > 0 c h u D + O % $ $ & & & : + O . ",
"B I B W I +.+.] I ] I +.I v F y 7 @ O u k 0 C 7 7 u u - 2 x i z p x x G w 8 t k N t P t 9 - x 2 o > > q + + + $ $ : 6 : : . + X ",
"d ;.W I ] +.` L d c ;.] ^ d m N ^ @ O - S w i 2 v 2 2 2 7 i > > v 2 ^ 2 0 w 3 F k s U 3 e 2 7 j o - i 1 O + O # O J B * J , X 6 ",
";.] I ;.;.I ` +.^ 8 w L *.| m V - g O h S c f h > 2 G - i x x C x 2 - u 0 e 9 s 3 N t y f - 0 f o L v = % O O # & W B J J J * * ",
"L B I ` } } } I I *. .| >.| S y x g g 8 V k Z y w u u C 7 2 2 v > C L 3 y w r 3 9 o 8 c 3 h 0 Z U u z 5 O O % # . B B B J J J J ",
"{ >.>.>.>.>.>.<.O.! @.:.! 4.P 5.p + @ 8 V t c j w w > - 7 2 7 7 p v h 8 a f a o o 8 s N 8 h G 9 P 0 v = O % % $ + ( ( } B J J J ",
"-.@.@.1.%.%.%.%.%.%.%.%.%. .{ &.l + g f m K t 0 u 0 h f 7 2 z p i 0 - y c k o 9 o t F Z f > C h t 2 z = O % % $ @ $.#.$.=.......",
"/ 1.-.-.@.@.@.@.%.@.! :.%.6.{ d , + . 2 s V 3 u > G 8 0 i v i i q x 7 w Z K 8 a h 3 s 3 h i > 8 f 2 q X % % $ # 1 <.<.' _ ' _ _ ",
"! ! / / @.@.1.1.@.-.>.>.:./ { ^ , + g 7 y t j G - G a u p l l z z l z d o Z t y 0 t 9 j 9 7 2 o f 2 q @ % $ % # 1 o.o.o.#.#.#.#.",
"! / -.1.1.1.-.:.-.:.1./ :.4.5.] 1 O @ p j 9 0 > x > G v x l q v v z , v h o f 0 j N c w j 2 G o L x D g $ % % # B ' ' _ #.3.$.$.",
"! / -.-./ ! ! ! / / ! O.:.4.&.] = % X p - e d > z x C z x - G z z l < p u 0 G y 3 F K f j u - y L p q g $ % $   W #.3.$.=.=...,.",
"O.O.! ! <.<.! / / ! / / :.4.&.+.= % @ z x f u 7 v 7 > l i i l 4 q l z G j h h y Z S s G 2 0 j 9 0 p 4 g % % $   1 ..} ( ( [ T H ",
"o.o.O.O.! ! O./ -./ -.:./ { &.C 5 $ = i C C x C > 7 i i v q 4 q q z x 2 > > e 9 s 8 w d x 2 j 8 j 7 4 @ % % $ # . [ T H T H ; H ",
"<.<.<.<.o.o.o.O.O.O.O.! O.{ { w < $ 5 - r f C C C > p p 7 p z l l x p u 0 u j a 8 o f d x 7 G w h 7 < g $ $ # # O H H H H ; ; : ",
"o.o.$.$.$.3.#._ #.' ' ' #.| { L < $ 5 - e f v 7 v p q z G 7 l l 4 z l i C v 2 2 0 e 2 p x 7 2 9 h v < + # $ # # $ . . & . . . . ",
"$.=.,.( J ( ..} } =...=.2.*.d ^ X $ 5 C u x q l i z 4 , 2 i D q 4 4 , i 7 z p z v C l 4 > G G 9 e x 4 g # $ # # # % % O O O O O ",
"( H * * O O : + & * 6 J +.L ;.i + $ , 2 0 x q l q v p , 2 x < X 5 = = l p q 4 z q i q l > 0 d w 0 7 4 g   # #     # # # # # # # ",
": . : . % + ; 6 . g @ + q L ` 4 + % 4 p i q D D 4 v x q i l , = 1 = X q q D , z i z i - f > C w - v , O   # #                   ",
". O % $ $ O . . & : @ @ 7 j x < + % D z q < , , < q 4 4 4 , 5 = X X = p z l D l i l 4 > C v 7 j G i < %   #                     ",
"$ % # # $ $ % % g g @ = u 9 i 5 % $ < z D 5 < < 5 1 1 , , 5 = X X = 5 , < 1 5 1 4 D < < D z p d - p 5 $               # #       ",
"$ $ $ $ $ O O O O . X B h 0 D = $ % 1 D q , , 1 = 1 D D , q < X X = @ = X X = = 5 1 5 1 4 l p u > q X $               # #       ",
"O % $ $ % + % O O @ = < - z , @ $ + , 4 4 < , 1 = < , 4 4 , 5 X X X @ = = @ @ X X X = < < X , 2 i < @ $   #                     ",
". % % $ # $ O + O + @ = v D 1 @ % X < , 1 < 1 5 X 1 < 1 5 1 = @ @ @ @ X X g g g @ X = 5 5 @ , i 4 = g $             #       #   ",
"6 ; . + % O + O + @ & = z p D X @ & < 4 1 < 5 = 5 5 1 5 X = X @ @ @ @ @ g g + g @ X = X @ X 5 4 1 X g #             #           ",
"$.} H : O . . & : 6 * B 2.^ I , 5 X I D +.D 1 5 < 1 5 = = X X X @ @ @ @ g g g @ X @ @ @ @ @ = , = @ + #                 # # # # ",
"_ R R ,.H T } ..I =.=.3.' _ #.=.B I ] ] 2.B B 1 1 B < 1 6 X 6 X & & @ @ & X = 6 @ + X @ @ X = 5 1 X @ . #       # $ $ $ % O $ $ ",
"b E b b n b ' o._ ' ' _ _ o.' ~ =._ _ _ _ ,.,.( ( ..} } I $...( J H ; & ; 1 B B ; ; * 6 ; X * B 1 X : . $ $ % O % + . % O O O O ",
"n n M A n b ~ _ E E ~ E R ~ ~ E E ~ ~ ' _ ~ ~ #.~ ~ b E _ ' ~ E A ,.} H B ....,.( } ,.( H * ( } ; . . * 6 : : H H H H H H & . O ",
"A Q Y Y Q R E E b b b R n b E E E ~ ~ ~ E ~ ~ ~ E E b E E E E R R b b A b E b b b R b A M A n ,.H [ ( ( ( [ [ Y M T T T T ; . . ",
"A Q n n n E b b b n n R n n R R R b n R n R R R R b b E b b b n R b R n b R b E b n R n M A n n M n A M M M M Y [ T [ T [ H H H ",
"M Q A n n R n X.X.X.A A X.X.A Q X.Q Y A n A n A n n n R X.M M Y A A M X.A n n n A A A M Y Q Q M A A M Y M Y Y [ Y [ T [ T H T T ",
"M A A X.M Y [ [ Y M Q Y Y Q X.Q M Y M X.X.M A X.M Q M X.Q M [ Y Y M M Q A A Q Q Y M Y M A A X.M X.X.M Y Y [ [ [ [ [ T T T T T T "
};
