/* XPM */
static char *result[] = {
/* columns rows colors chars-per-pixel */
"64 64 30 1 ",
"  c #252527",
". c #0F0E11",
"X c #2C2C2C",
"o c #1F1E1E",
"O c #161515",
"+ c #191819",
"@ c #1C1B1C",
"# c #131212",
"$ c gray16",
"% c #232223",
"& c #202020",
"* c gray25",
"= c #0A0B0F",
"- c #343434",
"; c gray23",
": c #2F2F2E",
"> c #0F1015",
", c #363839",
"< c #333130",
"1 c #13151A",
"2 c #464748",
"3 c #191F25",
"4 c #252D34",
"5 c #37414C",
"6 c #48535E",
"7 c #2B2121",
"8 c #556470",
"9 c #677783",
"0 c #788A98",
"q c #8B9FAB",
/* pixels */
".....###OO+++@o&%%%&%% $X:::::$@$:XX$$   %%%&&o@@@++OOO########&",
"......#OOO+++@&%%% %  $X::<<<<4,-:::XX$$$   %%&&o@@++OOOO#####.7",
"....##OOOO+@o&%%   $$$X:<-,-<4808-:<::XXXX$$  %&&o@@+OOOO######o",
"...###OOO+@o&%  $$$$XX:--,;,$,9095 -<<:::XXX$$ %%&o@@+OOOO#####&",
"..####OO+@o% $$XXXXX:<-,,,;-46898,3---<::<::X$$ %&&o@@++OOO####&",
".#####O+@o& $XXX:<::<<-,;;*%48085 1:,---<<::::X$ %%&&@@++OOO###o",
"####OO+@o% $XXX:<<<<--,;;**+3686531X,,----<:::XX$ %%&o@@+OOOO##o",
"###OO++@&% $X:<--<--,;;;***@1@1>>>1,;,,,,,--<<:X$$ %%&&o@+OOOO#o",
"##OO++@o%%$$$X:-,-,,;******$==.>>>3;;;;;;,,--<::X$$ %%&o@++OOO#&",
"##OO+@o&%$$$X<--,,,;;***222;.=.>>>&*****;;,---<<:X$$ %%&o@+++OO&",
"OOO++@o% $$$X:-,;;;;***22222o.111>$**;;**;;,,--<<:X$$ %%&o@++OO%",
"OO++@o&% $$XX:--;;;****22222X11+1325,@@;*;;;,,-<<:X$$$ %&o@++OO%",
"OO+@@o% $$XX::-,;;*;**22*,55,11338964522;*;;;,,-<:XX$  %%o@@++O&",
"O++@o%  $XX:<-,,;*****22 11 4>1360946qq085**;;,---:$$$ %%&o@@+O%",
"++@o&% $XX::--,,;;**222;1.@@3346994480qqq85;;;,--2;$$$  %&o@@+O%",
"++@&%% $X::<--,;;**2*2,$1 %1345555344569q06-;;,,;23X$$  %%&o@+O%",
"++@o%% $X::---;;;***22%@@< 43345543 134,88*X;,,,541$X$   %&&o@+%",
"O@o&%% $X::<-,,;;***22+>&; 4--22- 4443 <<777-,-,,+O$X$$  %%&o@+%",
"+@o&%% $$:<<--;;;;**2*O>%<:&$<X$$ 34454o77*6;--,,1. X$$$  %&o@+7",
"+@o%%  $XX:<--,;;**222+O%X<77777<o1495,%7;98,--43>. X$$   %&&@+7",
"+@&&%% $XX:<-,,;;***22@1&<<<777<<#>4053%X<2;$<- >.=%XX$$ %%%&o@$",
"@@o&% $$$X:<-,,;;**222%1  o <<7;<#=>111Oo<;86,;4>.=%:XX$  %%&@@7",
"+@&%% $$X:<--,;;;***22XO  %%$<<-$@===>+#=&486< 3O.. :X$$$$ %&@@7",
"@o&% $$XX:<<--,;;**222%.&&oo%$X:<$+11+++==13<$1>+..%:X$$$ %%&o@$",
"@o&% $$X:<----;;**2222o.@@1+%7 :::34 :7#=.+$X@1>+..%:X$$$  %&o@$",
"oo&% $$X:<--,,;;;**222 =++#OO&  o334 $7#O&7$%11>+..%XXX$   %%o@$",
"@o&%$XX:<<--,,;;***222,>##..++@ o13  %@.O@++#11>+#.%XXX$$  %%o@$",
"oo& $X:<<---,;;***2222->####+++ %13 31>=.##.=111OO.%XX$$   %&o@$",
"o&&% $:<<<-,;;****2222X>.#+++oo%%O131...##.==>1O##.%XX$$$ %%&&o$",
"@&%% $X:<<-,;;****2222&3>#+O.@@o$&11@+O#O#.1>>1O#.. XX$$  %%%&o$",
"o&   $X::<-,;;;***222*>..OO#O#@oo@@%X$oOO#.>>>>##.. XXX$   %%&o$",
"&% $$$X::---,;;;**2*2;3.+o+O+++@oo& $$@#OO#>1>O#.=. :XX$$   %&o$",
"&& $XXXX:---,;;****2* >%ooo++@%,$7$;553##O+.1>O>.=.$:XX$$   %&o$",
"&% $X::::<--,,;*****X>= o777777X<;$6984+#O.=11>#==>$:XX$$   %&o$",
"&%  XX:::<--,;;****2:=1@@%%@ $$ X*:8966%.##=11>>==#X:XX$$$  %%&$",
"&%  $X::<<--,;;;****3> o o@13 -<-;,553* O#O=>11>..O:<:XX$$ %%&@7",
"&%  $X:::<-,,;;****;1>+@&o%o o<<:<,*64$* .#=>11>..O:<:XX$$ %&@@$",
"&&% $X:::<-,;;*;***,.Oo+%$$%%oXX $<-*- ,<..>11>>.=O:::XX$$ %&@@7",
"o&%$$:::<--,;;*****->1&O%%%@+ :X$$X445,:$O.>>>>>>=1:::X$$  &o@+7",
"@o $X:::<--,,;;;;**--$>#++oo#&$%$:X,580;<7=>>>..==+::XX$$ %&o@+7",
"@o $XXX:::---,;;;**,4 =#OO+@#+oX$,,6556,XX.>>>..==+:XX$$ %&&o@+7",
"@&% $$X:X:<--,::<;*; 1=#++O++O@ ,5566555 $>>=>.=.=+X$   %&oo@+O%",
"@o%  $XXX::--,:-$$,251.O++O+++o@45556665 %>>>>...=@X$  %%&o@@+O%",
"+@&%  $XX:<--,,,,o4,,1#+@@+@#+@+ ,560085 1=>>>..==@XX$ %%o@@++O%",
"+@o&% $$X:<----,*, 31=+++@@+.#O@345689653>=>>>..>#oXX$ %%o@@+OOo",
"+@@&% $$X:<<-<<2683>1>#++++#=.O@14,556641.=1>>.==OXX$ %%&@@++OO&",
"++@o% $$X:::<<,962:%>.#+o@@%@OO@+3 44441..>11>>==O$$$ %%&@@++O#&",
"O+@o%  $X::::X8064X-1..O&OOo%X: o1>13311##.11>.==+7  %%&o@+OO##o",
"O+@o&% $$XXXX696,o:-@=..@.=>>&$&>1333111O@@11>.==#+%%%&o@+OO###&",
"O+@@o%  $$$$608; <-: +..O==>1+%o>>13331+O..1>>.==#+%%&o@@+O####o",
"O++@o&%  $ 2q95 X:<:X%...==.>+&@>.133311#..>>.===.O&%&o@@+O#...o",
"O++@o&%%%%,q96 $$X::X+.====>>+&+==133331#.>>..===..+&oo@+O##...o",
"OO+@oo&&&:006   $$XX O.=..=..O%+.=>33331.=.>.O>====#@@@++OO###.o",
"OOO+@@oo 9064  %  $X&#>>1>==.Oo@.=>343>1.=.>.#===..=+@@+OOO####o",
"OO++@o@&8064&%%%%  $&O1++@+1@o@+==>3411%#=>>..==.>>.O@+OOOO###.o",
"OO++@@o6q84o&&&&%%  %#1333&$X7++=.1 43@ O=>1O#.>1>@OO++OO######o",
"OOO+++2q84@@@ooo&% %&#=>>11@:@+@>1&4,4  +.+@.>>>>O@1OOOO######.&",
"OOOOO,q95@@++@@oo&%%%@.>.=#:$+@o11 :,4 %@++OO#1&O+3@OOOO##.###.o",
"OOOO 005@+++O+@@oo&&%%@...Oo11@o=.1133@&&o@@++1 @O@@O#OO#####..o",
"OOO%9q63OO+OO+@@@@oo&&o#...1>#%o.1455 @oo@@++O.o%O+@###########o",
"OO+9q83OOOOOOO+++@@@@@@O..=>>O7@>369941@@@++1+#+ +O@########...o",
"O+6q8 #OOOOOOOOO++++@+@+#..>=O%+.>4541>o@++1OO+O%@.+++#######.#o",
"O2q84OOOOOOOOOOOO+++++++#...=Oo+#.>1.>+++OOO@%@#@&.#++########.o",
";99*$<<:X::$7X$$<<<XX<<<$X$&%<--<<:X<;;<<<<<<;<:<;<<;;:::$<<<<<;"
};
