/* XPM */
static char *result[] = {
/* columns rows colors chars-per-pixel */
"64 64 106 2 ",
"   c #0D0D0E",
".  c #090A0E",
"X  c #030508",
"o  c #0E0F14",
"O  c #090A10",
"+  c #0C0D12",
"@  c #0F1019",
"#  c #0B0C10",
"$  c #06080C",
"%  c #05060B",
"&  c #07080F",
"*  c #222325",
"=  c #020206",
"-  c #111115",
";  c #100F0F",
":  c #212020",
">  c gray17",
",  c #141418",
"<  c #0B0D18",
"1  c #090A14",
"2  c #1B1B1B",
"3  c #252525",
"4  c #13141E",
"5  c #1C1D1F",
"6  c #2B2C2F",
"7  c #333332",
"8  c #242629",
"9  c #303236",
"0  c #28292D",
"q  c #2F302F",
"w  c #373735",
"e  c #1E1F24",
"r  c #17191D",
"t  c #282828",
"y  c #181719",
"u  c #495154",
"i  c #4C4D4C",
"p  c #586768",
"a  c #3D4041",
"s  c #2C2F33",
"d  c #363A3D",
"f  c #616E6E",
"g  c #3B3D3D",
"h  c #4D5758",
"j  c #3A3A39",
"k  c #444543",
"l  c #0E1638",
"z  c #0C132D",
"x  c #637373",
"c  c #4F5B5D",
"v  c #484A48",
"b  c #151515",
"n  c #3F4447",
"m  c #454D4F",
"M  c #697676",
"N  c #333639",
"B  c #41484B",
"V  c #515353",
"C  c #151D48",
"Z  c #080807",
"A  c #727C7B",
"S  c #16192E",
"D  c #616868",
"F  c #1C1F39",
"G  c #575957",
"H  c #555C5E",
"J  c #6B7B7B",
"K  c #546163",
"L  c #768183",
"P  c #D0BDB0",
"I  c #252745",
"U  c #0C1025",
"Y  c #E1D1C4",
"T  c #5E615F",
"R  c #84776F",
"E  c #95867D",
"W  c #C0AA96",
"Q  c #66584F",
"!  c #917667",
"~  c #BEAD9F",
"^  c #342825",
"/  c #C4B3A5",
"(  c #DBC9BC",
")  c #7F685A",
"_  c #554640",
"`  c #B3A090",
"'  c #D2C3B7",
"]  c #BB9B89",
"[  c #77716D",
"{  c #A69B95",
"}  c #9D9690",
"|  c #C1B9B1",
" . c #CEB5A6",
".. c #71645D",
"X. c #6E6A6D",
"o. c #463632",
"O. c #A2907C",
"+. c #848683",
"@. c #B08F7D",
"#. c #614D43",
"$. c #B4ABA5",
"%. c #A66D65",
"&. c #735C52",
"*. c #828D8A",
"=. c #2E3047",
"-. c #55514C",
/* pixels */
"          = = = = = X X X % . . # - y 5 e e e * 6 6 * 0 * * 8 0 0 0 9 9 6 6 0 0 0 > t : 2 b , - + + # # + + # . .               ",
"          = = = = = X X X $ . - , y 5 * 8 0 6 0 0 9 * 8 r 8 0 6 6 6 0 0 s 6 6 s 9 q > 3 : 2 y , - o + o o o + . .               ",
"          = = = = = X % % . o y 5 e * 0 s 9 N s e 9 9 N N d 8 0 9 9 6 0 s s 9 9 N N q > t : 5 y , - - - - - # . .               ",
"          = = = = X $ . . + y e * * 8 6 d g N 8 9 d B V a u a 8 9 N s 6 N d g g j N 7 7 q t * 5 y , , , , - # . .               ",
"          X = = = X $ + o , 5 8 8 8 0 s n n g 9 a V m N m f h s s 8 * 9 d n n a g g j w 7 6 3 * 5 2 y y b -   # #               ",
"          X = = = X . - y 5 8 6 0 0 6 d i v d u V H H A D c B s a s 6 g a v m n a a g j w q > t : 5 2 2 y - ; + +               ",
"          % X = X % # , 5 * 0 s s 9 9 N B i V u h V H { L 9 e r 8 e 0 8 n u u B n k k a j w q > 3 * : 5 y b ; + #               ",
"          X X X $ # o , e 8 0 6 9 N g 9 6 6 m 6 a N * a d 5 r r r , + + N H c m B v v k g j q > > t 3 : 2 b - o +               ",
"          % X X . + , r * 0 s N d g n u n n d e 8 e r , r e 8 r - - o - r u H h m i v k a j w q q > t 3 : y b , -               ",
"          $ % X $ o r e 8 9 a B B B u K D D B r r 8 9 0 t > : ; ; 2 , - r G T H h u i i k g j w w 7 > t : 5 y , ,               ",
"          . . $ + , e 8 s a u c V h p f f f n - - > X...R R _ 2 ; - b - q f f T G h h V v k g g j 7 6 t 3 : 5 y , ;             ",
"          . # + - r 8 6 N n u H c T f M f M p e   _ P ( Y ' { #.y ; Z ; G A A D H h h G V v k a g w q > t * : 5 ,               ",
"          + o - r e 6 9 d n u c H D M A M A L m 5 _ ' Y ( { R ..o.; ;   v L A f T H H H G i v k k j 7 q > t * 5 y ;             ",
"          # o , 5 * 0 9 a n m c K f L L A L L M i o.E ~ P E -.R ! :   Z t A A x D D T T H V i i k g w 7 q > t e y ;             ",
"          # o , e 8 6 N n m h K f J L *.L A L M G 7 _ E P / / P @.^ ; = 2 [ A M f X.D T T G V i k j w w 7 q > * r ;             ",
"          # o y e 0 9 g B u c p M A A L L D B j w > [ P P  .Y  .%.#.^ Z 3 [ A M D D X.D T G i k a g j w 7 7 6 8 2 ;             ",
"          # o , e 0 N a m h H D M M x J K e . Z   3 R ( ~ ] P ] %.) : Z 5 G f M m g V D T V i v k a g j w q > * 5 ;             ",
"          # o , e 6 d n m h c p x M x u r % . = Z 5 ..~ ] %.@.] @.&.: Z ; 7 T A g ; y > v V V i v k a g w q > * 5 ;             ",
"          # o y * 6 N n u c K f f J D 8 & % % O 1 + 9 X.%.%.] W ! #.^ = $ ; g G * = % + 5 d V V i v k a g 7 6 8 5 ;             ",
"          o , 5 8 s N n h K p x M D N * @ O + @ O & - y .. .W ! ) ) o.Z Z X Z   $ X $ & o * v G V i v k a w q 8 5 ;             ",
"          , r 8 9 d n m K p p x J u 8 e , & + @ 1 + # $ ; ..%.! O.! o.  ; $ $ . $ X % + + o 7 G G V i k g w q 0 5 ;             ",
"        ; r e 6 d n u K f f f M A u r - + O # @ + & % X ; ..W W ` ..3 & o O O + & $ $ o - + : V G V i v g w q t 5 ;             ",
"        ; r 8 9 g n u p x x x J L a @ - b   . + $ % X Z _ ` / ~ ` Q + % . + + o $ & O - , - 5 v V V i k g 7 6 3 2 ;             ",
"        ; 5 6 d a B u H p f f M x * & $ Z Z # . % . b 2 ../ [ T ` Q . Z Z # + + % $ & + - O o 9 V i i k g 7 > * 2 ;             ",
"        ; 5 s a B m u h c p x J H , $ % = X @ 6 X.E O.E O.W T T { [ - Z Z . + O % % % & + O + t i i v a j 7 > * 2 ;             ",
"        ; 5 s a m u u h c p M L h 4 & % = % 4 i $.Y (  .] ] O.~ ~ [ 5 . Z % & & % & O & & . . * v i v a j q t * 2 ;             ",
"        ; e s a m u c p p p x A d , @ # % % S I =.H [ R R R } } R i I 4 % $ . $ % & & + O $ $ t v i v a w q 8 : 2 ;             ",
"        ; * 9 a B u c p f p f f 0 @ 4 @ & % S I C l S S S S F F S I =.U + . $ $ . $ % o O $ % 6 i i k g 7 6 3 5 y ;             ",
"        ; 8 d n B m c p p p f f d @ 4 4 1 % U F l z 1 < < z z l F =.F < @ o $ $ X % X $ & . # q v v a w q > * 2 b ;             ",
"        ; 0 d n B B u c c p f x B r o , O Z 1 F C l U U U z z z I I z < % X X % X X % & & $ , d k k j 7 > 8 : 2 b ;             ",
"        ; 8 N B m m u h c K x M D V j 8 y Z 1 F C l z l z l z S =.F < 1 % = X % # . . . . $ r a a j 7 q t * 5 2 b               ",
"        ; 8 d u c c h K K c p x A $.$.E -.2 8 S I l z z z z U F I S < & $ = $ o r - # O . . 5 a j w q > t : 2 r b               ",
"        ; 8 d h p K K p p p p f } Y Y / Q k p F I S l z z z z F I U 1 & Z X + @ 4 + # # # ; t g j 7 q > t : 2 r -               ",
"        ; 6 a u c c c p x x f M | Y ( } v M J =.I S l z U U S I F < 1 $ X = % + y r 3 y - r 7 g w 7 q > t : 2 y -               ",
"        ; 6 a m u u c p M x M +.( ( W ) D *.*.B F F l z z z S I 4 & & $ Z ; : : Q ..R Q 7 0 j g w 7 q > 3 : 2 , -               ",
"        ; 0 d n m u h p x M A } ( P O.Q L *.*.h F I l l l z F S O . Z   t > j _ E ~ ~ @.Q w 7 w w 7 > 3 : 5 y , -               ",
"        ; 8 N a m h h K f x J } ' ( ~ R A J A c S C C l z S F @ & $ . 3 i v k _ E / P ` &.w 7 7 7 q > 3 : 5 y , -               ",
"        ; e s a m h h h p x M +.' Y ' { A M D 9 U C C l l S S < O % 0 V G -.i k R / P W ) w w w 7 q > 3 : 5 y , o               ",
"        ; r 0 d B u u h p x J x { Y ( | +.D s < z C C l l l U 1 & O B V i i k w #.`  .W ! j j w 7 q t 3 : 2 y , o               ",
"          , * s d n m c f M J x A | Y ( $.v < U l C C l l S U < & . N V k k j w ) W / ] ! k w 7 q > t * : 2 b - +               ",
"          , 5 8 s d B K M J J M x +.| Y ' E 8 U C C C I l l z @ o & - d i k i E /  .W @.) o.7 7 q > t * : 2 b o #               ",
"          , r * 0 d B c f J J M J M +.| Y ' [ 4 C C C C l l z @ 1 1 O @ d T { P P ~ O.! Q j 7 q q > t 3 : 2 b o #               ",
"        ; , 5 * 0 d n u K x x L L A h T | Y P G F C C C l z U @ < < 1 r G $.P P W O.) _ w 9 q q q > > 3 : 2 b o #               ",
"          , e 8 0 N a B c f x p c B s S V | Y | X.I C C l z 4 @ < @ j +.| P / ` ! #.^ ^ > > > > 6 > > 3 : 2 b o #               ",
"          - r * 8 9 g n m u B 9 6 e S 4 @ V ' Y ' +.I C l U < + 8 X.$.P / ` ! &.o.3 : 8 3 t > > > > > 3 : y - + #               ",
"          , , 5 8 s N 9 9 d 9 * 4 < < 1 < , E Y  .W X.F =.i G [ } } ~ ` ! Q o.^ : * * * * t t > > > t 3 : y - + .               ",
"          + y e 0 s s 6 N s e 4 < O 1 @ < $ Q ( ` Q { E `  .P  .{ G T #.^ - - : 8 * : : 3 t t > > t 3 * 5 y - + .               ",
"          o r * 6 s 9 9 0 5 4 < 1 O @ @ < $ j / W _ E &.R P W O.Q 7 5   % 1 1 o 2 : : : 3 t t > t 3 3 : 5 y - + #               ",
"          o , * 6 s s e r @ + @ 1 @ @ < < O r [ ~ E _ o.} ~ E ) ^   = = % % $ X . b 2 : : 3 t > t 3 : : 2 y - + .               ",
"          o - e 0 6 e r , + @ < < 4 @ < < 1 1 r [ ] @.] @.! &.^ Z Z X % $ % % % %   b r 5 * > > t 3 : : 2 b - # .               ",
"          + @ r e e r 4 @ @ @ 1 @ @ < @ @ 1 1 . ^ ) ! ) Q _ ^ Z % & $ & O & & & & $ # - r * > 6 > 3 * 5 y b ; # .               ",
"          # - , @ 4 4 @ @ 4 1 1 4 @ 1 @ < 1 1 & & ; : ^ 3   % $ & O . + + O . . . $ $ . - e t > > t * : y - ; . .               ",
"          # + + - 4 @ @ 4 < 1 @ 4 1 @ @ 1 1 1 & % X X Z . $ $ & + O % # # + . $ & . $ $ # , : t t 3 * 5 y ;   . .               ",
"          + & & - @ @ 4 @ & 1 4 @ & @ @ 1 @ 1 % X $     O # . . + O % # O + & & & . . $ $ # b : 3 * : 5 b ;   . $               ",
"          O % O o @ 4 4 1 & @ 4 < 1 @ o + o O % % + , # # + . # o O % + . + O . O & O . $ O + , r 5 5 5 , + . $ $               ",
"          $ $ + o @ 4 < & < 4 4 1 @ @ + + o & % $ + @ + + o O O o & % + O # O $ & # O & & & . + o , r r - # $ % $               ",
"          % . + o , @ & & @ 4 @ 1 @ @ + o + . X & + o # o o O O - & X + O & + $ $ O O $ O $ . # # + - , o # $ % %               ",
"          . O o - , 1 & 1 4 4 < < @ @ + - + $ X O + o + - o O O - & X O O & + $ % $ + $ . . $ # + . # + + # $ % %               ",
"          # o @ 4 @ & & < 4 @ O o 4 o o o + % X O # + + @ o O + - . X O O & o $ % % # & & + $ $ . + . $ . . $ % %               ",
"          < @ 4 4 1 & 1 @ 4 o & o o o < o + $ % O O + + @ < 1 < @ O = $ + $ o & % % & # & + O % & + # $ % $ % % $               ",
"          @ 4 4 @ & & 1 4 @ O O - O o @ + # $ % O O + + @ < O < @ O = % + % + . % % $ + & & + . $ O + . $ % X % $               ",
"          @ 4 4 1 & & @ 4 @ O + o O @ @ # # X $ O O # + 4 < O < @ O = % + % + + % % % O . $ + O $ . + . . $ X % $               ",
"          4 4 @ & O 1 @ 4 1 O - # O o @ O + X $ O O # + @ 1 1 @ @ & = X # $ + + % % % . O % & o O & . + . . % % %               ",
"          , 4 + & & O @ @ & & @ O O o o # o % . O O # o < 1 1 @ - $ = X # . O + % X % $ O . & + + & $ + # . $ % %               "
};
