/* XPM */
static char *result[] = {
/* columns rows colors chars-per-pixel */
"64 64 199 2 ",
"   c #7E674B",
".  c #4D4429",
"X  c #776849",
"o  c #867252",
"O  c #827247",
"+  c #7E6E46",
"@  c #6D5E33",
"#  c #645835",
"$  c #736644",
"%  c #766639",
"&  c #705E38",
"*  c #7B6C4A",
"=  c #705C3E",
"-  c #706442",
";  c #807242",
":  c #675C3B",
">  c #6C603C",
",  c #7E6D41",
"<  c #554C2E",
"1  c #9B8362",
"2  c #7A6740",
"3  c #615437",
"4  c #6C5E43",
"5  c #73663F",
"6  c #8F7C57",
"7  c #786247",
"8  c #807152",
"9  c #8C7552",
"0  c #726539",
"q  c #6B5B3F",
"w  c #867646",
"e  c #66563B",
"r  c #7C704C",
"t  c #6E623F",
"y  c #514732",
"u  c #84734B",
"i  c #7A7043",
"p  c #8B7D5B",
"a  c #9D8A6D",
"s  c #8B7758",
"d  c #5F5230",
"f  c #7C6B4F",
"g  c #816F4E",
"h  c #766841",
"j  c #816C4B",
"k  c #6C5939",
"l  c #877751",
"z  c #857342",
"x  c #887A4B",
"c  c #7A6B43",
"v  c #52472C",
"b  c #82733E",
"n  c #8A7B53",
"m  c #685731",
"M  c #665236",
"N  c #9B825B",
"B  c #927450",
"V  c #766241",
"C  c #685C35",
"Z  c #5A5033",
"A  c #8C7C4E",
"S  c #8F7F4A",
"D  c #7C6E3C",
"F  c #716549",
"G  c #786A4D",
"H  c #866B4B",
"J  c #726042",
"K  c #786B3E",
"L  c #64542E",
"P  c #6C5D39",
"I  c #766C47",
"U  c #594A2B",
"Y  c #8E8255",
"T  c #9E8865",
"R  c #86764C",
"E  c #94855A",
"W  c #615035",
"Q  c #94834C",
"!  c #71623E",
"~  c #7F6345",
"^  c #81764C",
"/  c #877740",
"(  c #816A47",
")  c #544927",
"_  c #817158",
"`  c #675A43",
"'  c #71573F",
"]  c #5B4F3A",
"[  c #736133",
"{  c #928053",
"}  c #6E6337",
"|  c #A19069",
" . c #8F825C",
".. c #867757",
"X. c #837753",
"o. c #72674F",
"O. c #96815E",
"+. c #947C59",
"@. c #90836B",
"#. c #917D5E",
"$. c #7B6A3A",
"%. c #5E5534",
"&. c #6C6143",
"*. c #8C714F",
"=. c #9A7E58",
"-. c #403526",
";. c #5E5128",
":. c #615742",
">. c #897B57",
",. c #6A604B",
"<. c #97876D",
"1. c #A68B65",
"2. c #816D3C",
"3. c #463E26",
"4. c #584B32",
"5. c #6B543D",
"6. c #86775D",
"7. c #957A53",
"8. c #62503D",
"9. c #978A63",
"0. c #A4946F",
"q. c #74603B",
"w. c #4E3D26",
"e. c #4E402F",
"r. c #887A47",
"t. c #8C744B",
"y. c #7D6841",
"u. c #63582F",
"i. c #7F734E",
"p. c #9C8B56",
"a. c #886D56",
"s. c #76644C",
"d. c #B09F7B",
"f. c #726048",
"g. c #948562",
"h. c #7B603E",
"j. c #806C53",
"k. c #958066",
"l. c #5C4F2F",
"z. c #968652",
"x. c #735A47",
"c. c #644D31",
"v. c #7C6846",
"b. c #8B7C62",
"n. c #866641",
"m. c #544128",
"M. c #736B3F",
"N. c #867359",
"B. c #766852",
"V. c #846D42",
"C. c #927B4E",
"Z. c #5A4634",
"A. c #796E52",
"S. c #8F745A",
"D. c #927657",
"F. c #8C7844",
"G. c #60573C",
"H. c #8D7D45",
"J. c #9C8E5E",
"K. c #5F4A37",
"L. c #8E6F4B",
"P. c #947B61",
"I. c #866D50",
"U. c #A5865F",
"Y. c #AF9571",
"T. c #715636",
"R. c #66633A",
"E. c #A9986B",
"W. c #A99978",
"Q. c #96714A",
"!. c #775B40",
"~. c #AB8E6A",
"^. c #8E6C40",
"/. c #363021",
"(. c #A2945F",
"). c #6C5A31",
"_. c #7C614C",
"`. c #8F8263",
"'. c #A28059",
"]. c #9A8D75",
"[. c #6E5034",
"{. c #897C6C",
"}. c #7A5B39",
"|. c #473E2D",
" X c #544B3D",
".X c #82613E",
"XX c #7B715E",
"oX c #9B784F",
"OX c #8A6D4D",
"+X c #A48C6F",
"@X c #6C5244",
"#X c #61442C",
"$X c #B2A48E",
"%X c #785335",
"&X c #9A7C60",
"*X c #A0947C",
"=X c #807769",
"-X c #705852",
";X c #736B5D",
/* pixels */
"W.*XB.o.@.;X X- x i R.9.n p + E R i.(.z.+ u ; & O u k < U t k.1 5.5.= * F ..X._ ].a Y.5.X #.o % w K % } M.@ # + 2.F., ! ! X + V ",
"@.,.,.XX*X=X X: ^ M.K E >.8 $ ^ ^ i.E (.A w O ).0 R h < > 6 s T   8.u * o.r I <.$XP.+XB.b.s o 9 l o p c O O c & , 2.y.u g 6 O.j ",
",.` o.o.XX{.,.:.&.K + l G 3 &.< # ! v.J.z.w , + K r...j.7 s   ( V f.9 = q X.G {.$X@.j.B.p o J D.P.a <.p u { 9 V , @ w x b D u  .",
"I - A.A.4 4 3 t h O J = F f f X > q + A x K , o w 9.<.+.V = 5.x.7 H ~ g <.6.8.s.<.{.,.5.*.OXH +.j * V q >.T O.v.w b D % D , , 5 ",
"> l p &.>.6 ; z 2 q.V * $ X e $ } 3 + K ; 0 : f c  .@.9 V.T.w.x.P.H 7 6 a = M M ( s 7.7.t.n., + P > V V { w $.[ z u @ @ R | 6 g ",
"u { % y 6 C.F.2.[ 2 O 2 5 l.M ! + O A x , O + >.s c.j V.2.& c.7 j j = v.#.o 7 f J 2 t.c.L $.b C > > 2 1  .u R O j s { 0.d.W.0.9.",
"r.w @ 3.k C.F./ 2.2., ).P + 2 j +.8 E  .h * Y 1 1 e.V 2 h.q.V v.g * e $ ^ $ &.g ! w b m v h , - - q 7 <.....+ * k.s E d.0.E.| v.",
"l % & 4.$ { F.F./ 2.& d P $ V s a 4 A  .A.* ^ +.1.8.k 2 ~ 9 ( v.- t e e - > = j ; / 2.@ v q 6 O.s X p f * 8 l ` k.b.v.+.N  .9 w ",
"&X#.f o.s.l F.H.2.2 v v , { f.` 6.b.Y Y g.k.B.o ~.&X#Xk C.7.( j.q 4 5.W 3 3 ~ q.z Q F.% U   U.1 X J e e.X g g v J j y.V.N A P ; ",
"' T.~ O.o c A p.V.l.d # 2 j X j.].d.p 9.E f 8._.&XD.e.W { t.( j e e.5.M v m.m.3 u z w ; P J H s o s f j     = 7 , , 9 9 C.[ @ 2.",
",.) % V.F.$.d S S C % $.& 4.q 6.@.a ..(.A $ W a.x.#X  = , w q.m m.-.K.f.] Z.Z.e 7 q.% R 5 = V     ( * a O.1 ] J | * f ( *.V.V.t.",
"] 3 h h % w & O A % % % [ Z o.{.@.g. .E c e s.x.@Xe 7 c.y.V > 4 . Z K.4 M w.3.q s 5.M * W   6 O.O.+.*.<.{._ j.f.a U ( o ( ( F.2.",
"t &.r F O z.{ R O y.V.[ m :.=X$X].6.n n = f.` ' @Xf._ ' 1.O X F -.e.|.8.T.!..X[.7 7 I.q = 9 T ~.7.B *.&XN.o.a.s O.f g * J 5.N.C.",
"# y i $ B.u A z 0 0 / 2.D A.o.N.6.$ n o J N.4 ' @Xx.' H 6 #.e l.3./.f.x.' &XOX8.8.*.n.V 5.~ *.*.=.T o   I.  f.  n k v.g j.f.k.W.",
"d -.c $ ` u C.z # v b H.b - f.k &.h u v.N.k._ s.8.B.f.N.<.j.%.%.3 ] f._.k.{.-X8.e B }.!.!.9 O.o J v.~ c.!.+.k.P.1 g.l s f o +.1 ",
". y G t 5 x S 2.v . / S $.r O.x M.: Z I 6.s P.f.] ` :.s._ _ q  X4 s.' s.b.-X-X@X_.L.c.#X~ =.1.=.V q.OX!.[.*.a.  o   ( _ K.o #.6 ",
":.:.G.X X.R z # e.Z E   @ l J.F.} . < i $ - a ` |. X] ` s.G ` ` h l.m.Z.x.s.s.7 5.9 ~ T.L.Q.'.Q..X~ ( 9 H +Xj.*.1 j #.J T.  : 6 ",
"` 3 $ E { R P y :.` ..u K c { { # y k , h %.@.8 G./.y e 4 X.q # u.) w.) m.W   j =   D.B '.Q.Q.Q.n.D.1 S.'.1.D.OXT D.o n.n.D.d P ",
"o.^ x >._ 3 v :.` :. .J.h & u Y $ l.M C.j 0 o.` ] |.] W y F W < L L m.w.w.m.' 5.k h.H 1 1.U.oX( a ~.1 D.'.oXL.k.k.k.& B .XB U.1 ",
"@.8 r @.=X-.-.o.6.F X l U l.> g W = u A V , o.e.]  X8.= e W 4.4.< d L ) m.( _.x.~ '.N 1 ~.~.=.+.1 7.+.+XY.'.[.Z.x.S.0 & #XB U.B ",
": _ &.t G.:.,.6.F : > $ 3 %.J   J   y.t.2 ).U 8.e.y ] = k . . W . d $.;.. *.K.7 OXL.7.+.d.Y.O.1 P.S.+X9 T *.S.    +.=.M c.=.1.B ",
"# ` F F q 4 - # 5 G F F 4 ! C = { m m v.k L * ! L & @ & U . 4.v v m [ ) w.a.5.' a.a.t.Q T 1.7.D.S.~ +.v.N v.1 Y.    T N N 7.'.L.",
"Z Z o.A.& t 0 C t Z 3 G q c d # , ).L * Z C g % V.$.2 k 3.y k . d 0 @ L ) W -.e.a.1 t.H.y.7.N +.a 1 T +.=.9 N 0.= W D.( H oXU.~.",
"%.%.I $ , ; } r 8 w.P t ! } @ d m [ L q # 3 P 0 z V.l # U G * W # + % @ ;.) -.w.v.6 $.D % K Y s +X+X6 +.O + g.*X7 h.N L.n.n.D.Q.",
"5 t &.c l r.C t * U C & L m 0 & P , w * G X ^ d # z ..L @ q.M w.3.> [ @ u.;.) c.~ h.; K D 0 6 #.T o v.o 2 6 6 9 B h.P.1 h.a b.' ",
"M.C $ c 4 I r % ; 0 } C l.L U & $ [ $.X.r { x %.u.D >.;.@ C l.|.< ).d L ;.. ).}.%Xn.&Xc M.r #.#.s j J ' j +.+.+.*.*.Y.1 ' $X=Xe.",
"I ] &.i o E $ 0 S D C ) < u.;.2 u k ).$ h z.w 0 5 % f ) [ # . . d & U U # < 4 a.@X@Xa._ e N.a T s I.= M 1 =.7.*.'.~.Y.  e 7 _.Z.",
"r ] ,.u n O ; ; D b D > C } d ! , $ &.i.0 , 0 t G.) %.Z u.. 3.4.M P l.. : 4 :.j.-Xx._.a.M o | | s 7 W 7 =.7.*.~ 1 '.N 9 H H OXI.",
"Y : : (.O 5 z.w $.Q A + 0 r ! m K } A.- D % ;.< &.L } # v %.. Z : : :. XG.t e 8.N.I._.!.!.H | T s v.V u C.t.N B .XL.H ~ H OXD.7 ",
" .5 X (.Q + z.S % S p.w # v < } ; @ * # @ h C q * % C < 3 . |.G.G.4.q > : - 7 S.P.S._.a.@X~ O.6 D.j v.( 2 y.7.oX7.L.T.h.' h.~ !.",
"X.^ $ { E x Q S @ w J.O 3 /.G...O D i.q.[ % L R _ Z ) d R.< . . Z ^ M.C > y q.*._.a._.S.a.K.u E O y.+ A u & & t.N t.}.}.y.H %X[.",
"< %.> ! E S H.z @ } x l 4.] ..p u x A.q.2.u.;.2.O F . > i t # G.< i.n C W . 4.y.  1 _.K.P.x.Z.+ y.& , O q.% q.t.7.V..X^.T.q.[.T.",
"Z $ X > ^ A ; K ^ M.r.p f R O z.S x # t , @ ;.@ c G 3 B.I c P # . . > r < < . = k D.x.c.  S.K.' o h + + 2 2 5 ( ( ( h.~ [.~ I.' ",
"# : $ c b K # K r O J.`.(.S 2 , + > 0 - : @ m ;.@ : _ {.X i.k # v 3.3.4.v Z U m I.k m.a.W.T !.Z.' 8 R + O ; # d ! J M c.L.oX1.I.",
"> : - ; b / u.G.G $ @.].E { z l.# * h K C X.p P & - o.=X,.X.P Z . 3.3.U c.e.c.T S.w.#Xa d.P.#X5.P.a R ; i 5 # : : W K.[..XQ.U.  ",
"&.r i r.$.K q.: ..* Z ..x z V.. -  .X x i | E.r f 4 B.XX:.- : 3 y v y e.K.Z.S.a.7 w._ W.P.= '   S.T { + M.i i I |.Z.' T.%XL.'.!.",
"4 X * x h > $ u o 6 w.; b b b d : : $ J.x $ | 4 G B.XX,.|.4.y < ] y |.-.3.8.I.] e.@X+Xa S.q ~ I.o |  .$ > * X.I /.m..X}.[.H .X}.",
"9.- 5 Y ..%.i i >.1 y - z , + X.X.r l { x e p u c F XX Xe.|.y -.] . y |.y 6.!.m.:.7 J g + > >.* X.E.| 0.I I ^ &./.#X%X^.Q.}.[.~ ",
"g.F > K 8 - 5 : X N K.l.K c g.n + c u A t.k O { v.:.;X4 Z.-.-./.y e 4.8.k g M 3.F $ &.* i G t X.J.0.| T l I R.. m.^.oX^.^.Q.Q.B ",
"* b.8 > : X._ :.f.7.B m.l.A N C.6 r 5 A + # 2 Q u F ,.7 -.] -.e.= W < r o 5.7 4.4.: R.t - X.I l 9.6 9 t.9 g A.J #.N 1.B ~ =.U.OX",
"<.a 4 h O + 8.e.@X&X1 /.v Q p.Q C.x Z + : < k } 2 6.` Z.` = 3.= 9 c.6 0.a   j J -.: R.R.-  .i.c g o j 9 B U.+.j *.=.Y.D.H 9 0.I.",
"3 4 v O Q 2 v -.j.I.M e W z Q F.z @ U . 4 B.q ) 5 @.o.e q 4 8.n 9 k 2 v.>.t O O ) /.%.* 8 #.>.>.g.6 V H t.1.#.O.9 =.=.n.!.=.1.n.",
";.i 5 Q Q q.W V ~ w.-.  W d r.b % ;.;.. # &.) @ X B.4.%.< > h O v.@ b m 3 } / / @ /.y  .O.#.p <.0.#.g.x 6  .9.| t.V.}.n.d.U.oXn.",
"$.z % Q / U e M !.Z.K.M m.q.% $.w u.} ; u.C u.D  .F %.) i / F.D d < , P q j S H.@ M 3 G #.o f 6.>.`.<.r R 9.o t.^..XoX}.Y.d.B N ",
"0 m $.S 0 L s.M h.' s.  K.~.! t Y %.} H.C ;.b ; @.%.% > i / D ) 3.3.Y A 5 f + H.D 2 P g   7 M 3 k ^ `.b.l *X*XE.p.^.1.h.7.~.OX~.",
"# # c n # J G J = S.Z.= 7 6 p &.M.} ;.r.% ; [ * 6.) > Y 6 ! P u.m n J.z.5 &.: ; v.f | Y.j.4 8.e 5 >.^ i.* 9 =.^.^.n.H j 7.*.I.1.",
"- + i c I f G   J x.  q g g.@.y U u.K S H.} U ..A.. i (.S X G.0 x a g.A c %.X.@.s.j.d.$XW.<.7 h M.R.M.R.%.k T.n.^.H 1 9 =.L.2 C.",
"&.6 r.P + i...6.X.f._.v.O.W.,.-.J 5 A H.H.C 3 9.o.Z i (./ } $ : n 8 { w 5 # 1 *X,.o 8 +X1.H y.D C 0 R.R.v v q.t.=.0.E.^.V.7 9 =.",
"q u w } 5 i g.N.N.* f   g s ,.` 0.j.& D h h ..<.F v d z.S % % > R - r.% P K  .XXl.[ 2   }.T.A 2.2 0 C I v v o @.<.0.d.l V.M W +.",
"Q.1 O.Z %.i N *.O.T <.s.J X $ f.+X#.e * f 8 a _ : 4 & T (.; ! p | 8 R D / ; {.G.U L / + & ;.; [ L m D d -.l.3 :.F >.p.9.5 5 + 1 ",
"n.h.X 3.< r.r.y.J.W.k.h v G b.f o 1 q J X ..<.e.V _ > E (.r.K s   k.l , S ]. Xm L % / F.[ ;.% ).U w.# L 3.< o F . X.Y p.h n J.u ",
"J = & C 0 p.Q @ O 9.^ b l.6.a ].s.J 8 V ..<.B.] X k.4.x H./ / D S E $ H.0.;X3.;.L @ & % & % [ [ @ U u.m d d 5 3 ] >.u c n | T E ",
",.> ; C R p./ ).# u 0 / % q s.g s.f f ..F `. Xe.@.g.+ c O r.w w Q % < J.].< d < = & m 2.m z z C.$.% $.& y.> r . 4.r M j a `.| E.",
"o.8 * > * z b b R B O D b l.3 : f #.6.o.&.{.y y _ 2 p.z F.2.P S w ! . 0.o.< < G.* m $.F.U y.{ Q ).q.Y @ & 1 9.3 w.7 V { 0.k.E.0.",
"X.8 I $ $ # M.i Y q > # K : %.&.r * b.:.,.B.J k c.2 z.Q b [ 0 r.r.0 - ].4.l.] X * X > % & q.% x A l h u.v.l p = 5.5.O.1.N O.1 7.",
"| = ! C R p.c > , m 8 r I i.I A.g g 8 G.=XF 6 *.e ! Q b 0 ; h ; i n @.:.4.5 &.X.n + g 8 R r 8 b.h c Y C & P p M ( x.j.Y.N 1.H n.",
"s * 7.m g p.w O c e I g i.g.W.B.H = q 8 ;XF X >.]...t & z.z., $ > d.:.< R.Y r  .9.^ #._ s 8 ].XXZ 5 ^ # P L O.4 = f q N 1.7.h.B ",
"s j o = W A Q b ; C k V X.d.<.F X e $ 6.4 G A.9.0.G Z t J.r.w N.4 @.< u.R.M...| i.i.`.j o + p 8 8 p - % S A p.#.3 4 K.9 N L.=.'.",
"= s a e U R p.b , 0 ( o E E 8 X t y ` G > r _  .Y 3.< r x u O.f o.o.u.u Y r >.`.b.8 9 0.W.g.4 p 4 o ! u z.p.R #.e.K.' O.N B ~.U.",
"h.I.O.#.J m A C.m ; n n (.T 6.X I $ &.3 X.I - X.x % 5 A O O g _ @.,.- l J.i.3 h ..f.8 W.W.A.J 6 X X t c ; 5 o N.. e j N B ^.1.T ",
"' M q.Q.oXC.U.Y.P r - R J.N.e n Y h $ >.J.O - I (.H.^ O + ^ p ].s $ q | d.r W 9 9 f r | *XG g g.p 8 l Y Y $ 6.s.q o g $ H U.E.Y.",
"a.7 #Xh.}.y.=.~.e & d ^ E ! ^ E i.>.z.z ).L : 3 , r.Y > F p <.;Xp G q l 0.* h A + O n ..6.b.g.| W.9.`. .n f N.G b.k.b.X t.p.d.E.",
"a P.7 #.J !.Y.*.k U.s 3 >.a  .Y p i.> ) U t ` . % D ; ; I @.A.%.T @.y d n > S Q S ; l X 8 #.n p p $ _ g.9.p ..e `.$XXX_ 9 l E.S ",
"_ s.q #.s B H y.v.{ - 3 p d.W.F r ` w.W $ * ,.y 5 D D 0 i.A.} ; x T ` 8.8 & S Q / m h s g o 9 a `.G G d.$X0.9.G.XX$X{.,.G  .E.p."
};
