/* XPM */
static char *result[] = {
/* columns rows colors chars-per-pixel */
"64 60 199 2 ",
"   c #0C0B0F",
".  c #0D0D11",
"X  c #100F12",
"o  c #141315",
"O  c #171719",
"+  c #18171A",
"@  c #1B1B1C",
"#  c #211E1F",
"$  c #1E1E20",
"%  c #211F22",
"&  c #242325",
"*  c #2B2827",
"=  c #262529",
"-  c #282729",
";  c #2C2D2C",
":  c #372C2B",
">  c #2F2E33",
",  c #323234",
"<  c #383739",
"1  c #3B3B3A",
"2  c #423535",
"3  c #423D3C",
"4  c #5D3D3C",
"5  c #43403E",
"6  c #3C3D40",
"7  c #444344",
"8  c #4B4543",
"9  c #474847",
"0  c #4C4846",
"q  c #43454A",
"w  c #474A4B",
"e  c #4D4C4B",
"r  c #534C45",
"t  c #5B4F46",
"y  c #514E4D",
"u  c #53504E",
"i  c #4C4E52",
"p  c #4E5254",
"a  c #545354",
"s  c #595554",
"d  c #5C5855",
"f  c #53565A",
"g  c #595759",
"h  c #55595C",
"j  c #5B5B5C",
"k  c #6B4E4D",
"l  c #744E4C",
"z  c #64594F",
"x  c #675657",
"c  c #625A55",
"v  c #625E5B",
"b  c #785856",
"n  c #63615F",
"m  c #6B635E",
"M  c #75685A",
"N  c #555C61",
"B  c #5A5D61",
"V  c #5E6365",
"C  c #5F656A",
"Z  c #5D6670",
"A  c #636264",
"S  c #6B6663",
"D  c #636669",
"F  c #65696C",
"G  c #6B6868",
"H  c #6B6B6C",
"J  c #726B65",
"K  c #726E6D",
"L  c #7F7366",
"P  c #72716D",
"I  c #7B726C",
"U  c #646B72",
"Y  c #6B6D71",
"T  c #706F70",
"R  c #6E7274",
"E  c #6C737C",
"W  c #727374",
"Q  c #7B7672",
"!  c #797877",
"~  c #737579",
"^  c #75797D",
"/  c #7C7C7C",
"(  c #846665",
")  c #8B6F71",
"_  c #847D77",
"`  c #827E7D",
"'  c #84817F",
"]  c #968675",
"[  c #757C83",
"{  c #7B7D82",
"}  c #807F81",
"|  c #7D8386",
" . c #7D838C",
".. c #838385",
"X. c #898684",
"o. c #8E8A86",
"O. c #82858A",
"+. c #888789",
"@. c #85898D",
"#. c #8B8B8C",
"$. c #938984",
"%. c #97928E",
"&. c #868C96",
"*. c #8C8E91",
"=. c #8D9295",
"-. c #8D949B",
";. c gray58",
":. c #989797",
">. c #9E9A97",
",. c #92969A",
"<. c #969A9D",
"1. c #9C9B9B",
"2. c #AD9C8C",
"3. c #A49793",
"4. c #A19D9B",
"5. c #B19F9F",
"6. c #B1A08E",
"7. c #A7A19B",
"8. c #ABA29A",
"9. c #B7A694",
"0. c #959CA7",
"q. c #9A9EA6",
"w. c #A09EA0",
"e. c #9FA2A5",
"r. c #9EA5AB",
"t. c #9FA9B2",
"y. c #A3A4A4",
"u. c #A9A6A3",
"i. c #ADA9A7",
"p. c #A2A5AA",
"a. c #A5A9AD",
"s. c #ADABAB",
"d. c #B3AAA7",
"f. c #B3B0AE",
"g. c #BCB3AE",
"h. c #A6ADB3",
"j. c #AAAEB2",
"k. c #ACB1B6",
"l. c #ADB3B9",
"z. c #B5B4B3",
"x. c #B9B6B4",
"c. c #BBB8B7",
"v. c #B2B6BB",
"b. c #B5B8BB",
"n. c #BBBABB",
"m. c #C0AF9D",
"M. c #C3B5A3",
"N. c #C3B6AA",
"B. c #C6B9AB",
"V. c #CBBCAD",
"C. c #C1BEBC",
"Z. c #CEC2B5",
"A. c #C2C0BF",
"S. c #CEC4B9",
"D. c #D4C7B9",
"F. c #D5CABD",
"G. c #B5BCC0",
"H. c #BABEC2",
"J. c #CCBFC0",
"K. c #BEC1C4",
"L. c #BFC4C9",
"P. c #C5C3C3",
"I. c #C9C6C4",
"U. c #C3C6CA",
"Y. c #C7C9CC",
"T. c #CACACC",
"R. c #D7CEC6",
"E. c #D1CECB",
"W. c #D9D2CA",
"Q. c #C5CAD1",
"!. c #CBCDD1",
"~. c #CED1D4",
"^. c #D4D4D5",
"/. c #D8D6D5",
"(. c #DBD9D6",
"). c #D5D7DA",
"_. c #D7D8DA",
"`. c #DCDBDB",
"'. c #E3D9CF",
"]. c #E4DDD4",
"[. c #E2DEDD",
"{. c #E4E1DD",
"}. c #EAE3DB",
"|. c #DEDEE1",
" X c #DFE1E3",
".X c #E4E3E3",
"XX c #E9E6E3",
"oX c #E4E6E9",
"OX c #E8E9EA",
"+X c #ECEBEB",
"@X c #F1ECE6",
"#X c #F1EEED",
"$X c #F3F1EC",
"%X c #EDEEF1",
"&X c #EFF1F3",
"*X c #F4F4F4",
"=X c #F8F6F4",
"-X c #FAF9F7",
";X c #FFFFFF",
/* pixels */
";X;X;X;X;X;X;X;X;X;X;X;X;X;X;X;X;X;X;X;X;X;X;X;X;X;X;X;X;X;X;X;X;X;X;X;X;X;X;X;X;X;X;X;X;X;X;X;X;X;X;X;X;X;X;X;X;X;X;X;X;X;X;X;X",
";X;X;X;X;X;X;X;X;X;X;X;X;X;X;X;X;X;X;X;X;X;X;X;X;X;X;X;X;X;X;X;X-X/.+X;X;X;X;X;X;X;X;X;X;X;X;X;X;X;X;X;X;X;X;X;X;X;X;X;X;X;X;X;X",
";X;X;X;X;X;X;X;X;X;X;X;X;X;X;X;X;X;X;X;X;X;X;X;X;X;X;X;X;X;X;X=X^.z.c._.-X;X;X;X;X;X;X;X;X;X;X;X;X;X;X;X;X;X;X;X;X;X;X;X;X;X;X;X",
";X;X;X;X;X;X;X;X;X;X;X;X;X;X;X;X;X;X;X;X;X;X;X;X;X;X;X;X;X;X*X^._.*XOXH.!.;X;X;X;X;X;X;X;X;X;X;X;X;X;X;X;X;X;X;X;X;X;X;X;X;X;X;X",
";X;X;X;X;X;X;X;X;X;X;X;X;X;X;X;X;X;X;X;X;X;X;X;X;X;X;X;X;X;X_.Q. X*X+XOXn..X;X;X;X;X;X;X;X;X;X;X;X;X;X;X;X;X;X;X;X;X;X;X;X;X;X;X",
";X;X;X;X;X;X;X;X;X;X;X;X;X;X;X;X;X;X;X;X;X;X;X;X;X;X;X;X;XOXk.@.-.b.t.Y.Y.T.;X;X;X;X;X;X;X;X;X;X;X;X;X;X;X;X;X;X;X;X;X;X;X;X;X;X",
";X;X;X;X;X;X;X;X;X;X;X;X;X;X;X;X;X;X;X;X;X;X;X;X;X;X;X;X;X^.D f ~ | F q.T.I.;X;X;X;X;X;X;X;X;X;X;X;X;X;X;X;X;X;X;X;X;X;X;X;X;X;X",
";X;X;X;X;X;X;X;X;X;X;X;X;X;X;X;X;X;X;X;X;X;X;X;X;X;X;X;X;XP.a f F A h u.n.P.;X;X;X;X;X;X;X;X;X;X;X;X;X;X;X;X;X;X;X;X;X;X;X;X;X;X",
"-X^.oX;X;X;X;X;X;X;X;X;X;X;X;X;X;X;X;X;X;X;X;X;X;X;X;X;X;X.X^ ! y.D j :.u.C.;X;X;X;X;X;X;X;X;X;X;X;X;X;X;X;X;X;X;X;X;X;X;X;X;X;X",
";X|.p.b.*X;X;X;X;X;X;X;X;X;X;X;X;X;X;X;X;X;X;X;X;X;X;X;X;X+X..F #.~ ~ 1.u.d.*X;X;X;X;X;X;X;X;X;X;X;X;X;X;X;X;X;X;X;X;X;X;X;X;X;X",
";X;X.X| ^ T.;X;X*X~.~.;X;X;X;X;X;X;X;X;X;X;X;X;X;X;X;X;X;X*X{ g g a A *.x.i.oX;X;X;X;X;X;X;X;X;X;X;X;X;X;X;X;X;X;X;X;X;X;X;X;X;X",
";X;X;XoX/ a p._.h.h. X;X;X;X;X;X;X;X;X;X;X;X;X;X;X;X;X;X;X-X1.g 9 7 e P } q.(.+X=X-X;X;X;X;X;X;X;X;X;X;X;X;X;X;X;X;X;X;X;X;X;X;X",
";X;X;X;XOX..H e.k.l.-X;X;X;X;X;X;X;X;X;X;X;X;X;X;X;X;X;X;XOXy.y 7 1 7 a , &.!.|.|.!.(.*X;X;X;X;X;X;X;X;X;X;X;X;X;X;X;X;X;X;X;X;X",
";X;X;X;X;XY.R R <.Q.+X;X;X;X;X;X;X;X;X;X;X;X;X;X;X;X;X;X).P.+.W 9 ; ; > D !.&X;X-X*XQ.T.*X;X;X;X;X;X;X;X;X;X;X;X;X;X;X;X;X;X;X;X",
";X;X;X;X_.,.V B Y [ k.%X-X;X;X;X;X;X;X;X;X;X;X;X;X;X;X`.J.!.n.~.~ , 1 i a.0.G.*X;X;XoXQ.P.-X;X;X;X;X;X;X;X;X;X;X;X;X;X;X;X;X;X;X",
";X;X;X_.@. .Y p h D F ..U.+X-X;X;X;X;X;X;X;X;X;X;X;X*XY.l.-.v.H.p.| ^ a.w.q D h.oX%XL.H.u./.;X;X;X;X;X;X;X;X;X;X;X;X;X;X;X;X;X;X",
";X;X;X*XU.=.^ V p p F ,.@.*.A.-X;X;X;X;X;X;X;X;X;X;X.X0.-.*.{ ,.a.p.~.T.V 7 7 U -.p.l.k.c.x.-X;X;X;X;X;X;X;X;X;X;X;X;X;X;X;X;X;X",
";X;X;X;X;X*XK.+.D p / -X%Xf.P %.{.;X;X;X;X;X;X;X;X;Xc.V 0.v.B O.<.G..XG.C h w 1 p ~ a.p.K.s.OX;X;X;X;X;X;X;X;X;X;X;X;X;X;X;X;X;X",
";X;X;X;X;X;X;X&XK.@.e.;X;X;X{.;.! C.=X;X;X;X;X;X;X-Xq.q q.*.f ^ | ~.Y.K.G.| h @ 6 ~ O.-.l.H./.;X;X;X;X;X;X;X;X;X;X;X;X;X;X;X;X;X",
";X;X;X;X;X;X;X;X;X*X+X;X;X;X;X-XI.! o.(.-X;X;X;X;X=X+.= > G Y N V H.Y.:.=.R 1 X > g h ~ q.(.E.-X;X;X;X;X;X;X;X;X;X;X;X;X;X;X;X;X",
";X;X;X;X;X;X;X;X;X;X;X;X;X;X;X;X;X+Xu.! f.#X;X;X;XoX! < @ W B h p =.a.=.B 1 ; @ @ 8 9 H -.h.b.*X;X;X;X;X;X;X;X;X;X;X;X;X;X;X;X;X",
";X;X;X;X;X;X;X;X;X;X;X;X;X;X;X;X;X;X;X^.X.X.R.+Xc.*.D 7 + j B Y p ! R P P e , @ O 7 a F  .&.h.).;X;X;X;X;X;X;X;X;X;X;X;X;X;X;X;X",
";X;X;X;X;X;X;X;X;X;X;X;X;X;X;X;X;X;X;X;X*Xf.W $.1.e.p.-., q R { p H V j g 9 1 # @ , R a h [ t.Q._.=X;X;X;X;X;X;X;X;X;X;X;X;X;X;X",
";X;X;X;X;X;X;X;X;X;X;X;X;X;X;X;X;X;X;X;X;X;XE.1.G.&.-.0.B > 9 G P P n h p 7 5 & # 5 ^.y.p Y  .0.U.`.;X;X;X;X;X;X;X;X;X;X;X;X;X;X",
";X;X;X;X;X;X;X;X;X;X;X;X;X;X;X;X;X;X;X;X;X;XE.X.V w f Q n u , d Q _ V a u 9 5 ; c 8.-X*Xa.L.h.E #.[.;X;X;X;X;X;X;X;X;X;X;X;X;X;X",
";X;X;X;X;X;X;X;X;X;X;X;X;X;X;X;X;X;X;X;X;X;XOXo.d u r ] Z.g.S n J Q J v a d e 5 J C.;X;X~.p.^ F u.-X;X;X;X;X;X;X;X;X;X;X;X;X;X;X",
";X;X;X;X;X;X;X;X;X;X;X;X;X;X;X;X;X;X;X;X;X;X;XXX8.m 8 t 2.Z.M.' m m m n c n u 5 S C.;X-X+.Z E | _.;X;X;X;X;X;X;X;X;X;X;X;X;X;X;X",
";X;X;X;X;X;X;X;X;X;X;X;X;X;X;X;X;X;X;X;X;X;X;X;X-XI.>.z.@X8.2.Z.>._ ' _ _ D p 9 o.8.=X+XA p f ;.*X;X;X;X;X;X;X;X;X;X;X;X;X;X;X;X",
";X;X;X;X;X;X;X;X;X;X;X;X;X;X;X;X;X;X;X;X;X;X;X;X;X;X;X;XOXK 5 ) M.W.E.k.r.Y p p y.%.].+XH D h z.;X;X;X;X;X;X;X;X;X;X;X;X;X;X;X;X",
";X;X;X;X;X;X;X;X;X;X;X;X;X;X;X;X;X;X;X;X;X;X;X;X;X;X;X;X4.8 s 3 z ] Z.c.| h p p #.$.I.n.g B P [.;X;X;X;X;X;X;X;X;X;X;X;X;X;X;X;X",
";X;X;X;X;X;X;X;X;X;X;X;X;X;X;X;X;X;X;X;X;X;X;X;X;X;X*X^.J u 3 3 r u M 9.Z.' h p B _ d.:.j n S P.;X;X;X;X;X;X;X;X;X;X;X;X;X;X;X;X",
";X;X;X;X;X;X;X;X;X;X;X;X;X;X;X;X;X;X;X;X;X;X;X;X;X;XP.I s S v a u s 5 5 ] M.d.F e Q 8.` S n v J /.;X;X;X;X;X;X;X;X;X;X;X;X;X;X;X",
";X;X;X;X;X;X;X;X;X;X;X;X;X;X;X;X;X;X;X;X;X;X;X;X;X-X,.i a S v n G G h 9 5 z 6.B.' Q 4.<.P d c c 8.;X;X;X;X;X;X;X;X;X;X;X;X;X;X;X",
";X;X;X;X;X;X;X;X;X;X;X;X;X;X;X;X;X;X;X;X;X;X;X;X;XoX{ q E D v S P P P f Q p u L g.A.%X X/ c I 7.`.;X;X;X;X;X;X;X;X;X;X;X;X;X;X;X",
";X;X;X;X;X;X;X;X;X;X;X;X;X;X;X;X;X;X;X;X;X;X;X;X+XQ.[ q 6 $ + , h @.e.Y j.~ 7 & 0 i._.t.^ u.OX-X;X;X;X;X;X;X;X;X;X;X;X;X;X;X;X;X",
";X;X;X;X;X;X;X;X;X;X;X;X;X;X;X;X;X;X;X;X;X;X;X;X^.O.> .     . . O A -.f <.=.V , 3 n S A | W.;X;X;X;X;X;X;X;X;X;X;X;X;X;X;X;X;X;X",
";X;X;X;X;X;X;X;X;X;X;X;X;X;X;X;X;X;X;X;X;X;X;X;X%XA 7 = . . .   o A R h =.k.| p 7 v c d L 2.].-X;X;X;X;X;X;X;X;X;X;X;X;X;X;X;X;X",
";X;X;X;X;X;X;X;X;X;X;X;X;X;X;X;X;X;X;X;X;X;X;X;X).B U e + X . + #.*Xb.F =.h.R e g +.z.x.{.S.m.F.$X;X;X;X;X;X;X;X;X;X;X;X;X;X;X;X",
";X;X;X;X;X;X;X;X;X;X;X;X;X;X;X;X;X;X;X;X;X;X;X;Xq.U D e & . & 1.-X;X-Xt.| | N u j K .X;X;X;XXXV.V.].-X;X;X;X;X;X;X;X;X;X;X;X;X;X",
";X;X;X;X;X;X;X;X;X;X;X;X;X;X;X;X;X;X;X;X;X;X;X&X{ E s y - & z.;X;X;X-XF.D V p u n ..(.;X;X;X;X=XW.B.F.@X;X;X;X;X;X;X;X;X;X;X;X;X",
";X;X;X;X;X;X;X;X;X;X;X;X;X;X;X;X;X;X;X;X;X;X;XT.E D y 0 % #.;X;X;X;X;XOXj 8 0 0 V *.E.;X;X;X;X;X;X+XZ.B.'.-X;X;X;X;X;X;X;X;X;X;X",
";X;X;X;X;X;X;X;X;X;X;X;X;X;X;X;X;X;X;X;X;X;X*X-.[ h 0 * 9 $X;X;X;X;X;X;X#.0 e y j +.A.;X;X;X;X;X;X;X-X].B.S.}.-X;X;X;X;X;X;X;X;X",
";X;X;X;X;X;X;X;X;X;X;X;X;X;X;X;X;X;X;X;X;X;X_.&. .h : 6 K.;X;X;X;X;X;X;XI.u u a j W 7.-X;X;X;X;X;X;X;X;X$XF.N.R.$X;X;X;X;X;X;X;X",
";X;X;X;X;X;X;X;X;X;X;X;X;X;X;X;X;X;X;X;X;X*XO.O.~ w @ ` ;X;X;X;X;X;X;X;X#XG s s g i =.=X;X;X;X;X;X;X;X;X;X;X{.V.V.}.-X;X;X;X;X;X",
";X;X;X;X;X;X;X;X;X;X;X;X;X;X;X;X;X;X;X;X;X*X{ A g 9 % A ;X;X;X;X;X;X;X;X;X1.y s g 1 X.(.;X;X;X;X;X;X;X;X;X;X;X=XW.V.F.@X-X;X;X;X",
";X;X;X;X;X;X;X;X;X;X;X;X;X;X;X;X;X;X;X;X;X;Xs.g a 9 o j -X;X;X;X;X;X;X;X;XI.e g a q ~ 4.E.;X;X;X;X;X;X;X;X;X;X;X;X#XF.V.'.-X;X;X",
";X;X;X;X;X;X;X;X;X;X;X;X;X;X;X;X;X;X;X;X;XA.K g g 9 % G ;X;X;X;X;X;X;X;X;X(.g g j a Y p.s.$X;X;X;X;X;X;X;X;X;X;X;X;X-X{.Z.D.}.;X",
";X;X;X;X;X;X;X;X;X;X;X;X;X;X;X;X;X;X;X;X;X(.>.n B e & j *X;X;X;X;X;X;X;X;XOXG j h g h F q.#X;X;X;X;X;X;X;X;X;X;X;X;X;X;X$XR.B.].",
";X;X;X;X;X;X;X;X;X;X;X;X;X;X;X;X;X;X;X;X;X;XOXH j 1 - ! -X;X;X;X;X;X;X;X;X;Xu.u e e 0 e G #X;X;X;X;X;X;X;X;X;X;X;X;X;X;X;X;XXX@X",
";X;X;X;X;X;X;X;X;X;X;X;X;X;X;X;X;X;X;X;X;X;XOXK j 1 , c.;X;X;X;X;X;X;X;X;X;X*Xz.s 1 8 8 i `.;X;X;X;X;X;X;X;X;X;X;X;X;X;X;X;X;X;X",
";X;X;X;X;X;X;X;X;X;X;X;X;X;X;X;X;X;X;X;X;X;XOXK B y n OX;X;X;X;X;X;X;X;X;X;X;X;XJ.0 5 0 s T.;X;X;X;X;X;X;X;X;X;X;X;X;X;X;X;X;X;X",
";X;X;X;X;X;X;X;X;X;X;X;X;X;X;X;X;X;X;X;X;X;X+XT j e ..-X;X;X;X;X;X;X;X;X;X;X;X;X;X1.2 5 y x.;X;X;X;X;X;X;X;X;X;X;X;X;X;X;X;X;X;X",
";X;X;X;X;X;X;X;X;X;X;X;X;X;X;X;X;X;X;X;X;X;X%XW j y z.;X;X;X;X;X;X;X;X;X;X;X;X;X;X#XK < 8 :.-X;X;X;X;X;X;X;X;X;X;X;X;X;X;X;X;X;X",
";X;X;X;X;X;X;X;X;X;X;X;X;X;X;X;X;X;X;X;X;X;X^.F g 0 P.;X;X;X;X;X;X;X;X;X;X;X;X;X;X;XC.2 8 G J.-X;X;X;X;X;X;X;X;X;X;X;X;X;X;X;X;X",
";X;X;X;X;X;X;X;X;X;X;X;X;X;X;X;X;X;X;X;X;X-Xp.U q , n.;X;X;X;X;X;X;X;X;X;X;X;X;X;X;XXXr 3 B } OX;X;X;X;X;X;X;X;X;X;X;X;X;X;X;X;X",
";X;X;X;X;X;X;X;X;X;X;X;X;X;X;X;X;X;X;X;X-XJ.q.U N a s.;X;X;X;X;X;X;X;X;X;X;X;X;X;X-XXXm v s A `.;X;X;X;X;X;X;X;X;X;X;X;X;X;X;X;X",
";X;X;X;X;X;X;X;X;X;X;X;X;X;X;X;X;X;X-X[.5.( x f i N n.;X;X;X;X;X;X;X;X;X;X;X;X;X;X;Xd.l ( x X.*X;X;X;X;X;X;X;X;X;X;X;X;X;X;X;X;X",
";X;X;X;X;X;X;X;X;X;X;X;X;X;X;X;X;X.Xd.) l 4 2 6 h F _.;X;X;X;X;X;X;X;X;X;X;X;X;X;X}.( l ( b P.;X;X;X;X;X;X;X;X;X;X;X;X;X;X;X;X;X",
";X;X;X;X;X;X;X;X;X;X;X;X;X;X;X;X-X3.k k k Q 1.n.^.OX;X;X;X;X;X;X;X;X;X;X;X;X;X;X;Xd.l b l 3.;X;X;X;X;X;X;X;X;X;X;X;X;X;X;X;X;X;X",
";X;X;X;X;X;X;X;X;X;X;X;X;X;X;X;X;X.Xc.P.|.-X;X;X;X;X;X;X;X;X;X;X;X;X;X;X;X;X;X;X;Xx.b b $.XX;X;X;X;X;X;X;X;X;X;X;X;X;X;X;X;X;X;X"
};
