/* XPM */
static char *result[] = {
/* columns rows colors chars-per-pixel */
"64 64 214 2 ",
"   c #0A070B",
".  c #0B0B0D",
"X  c #0E0E11",
"o  c #100F11",
"O  c #141315",
"+  c #161618",
"@  c #1C1B1D",
"#  c #1C1C20",
"$  c #242326",
"%  c #282627",
"&  c #24262A",
"*  c #2B2A2B",
"=  c #35312F",
"-  c #2C2E31",
";  c #2F3134",
":  c #323133",
">  c #393533",
",  c #3D3937",
"<  c #353539",
"1  c #373938",
"2  c #3D3C3C",
"3  c #47322F",
"4  c #423E3C",
"5  c #593E3B",
"6  c #43413E",
"7  c #4B433D",
"8  c #5B413B",
"9  c #65423C",
"0  c #3C3E43",
"q  c #3E4243",
"w  c #3D4349",
"e  c #444342",
"r  c #4B4643",
"t  c #4C4946",
"y  c #454649",
"u  c #454B4A",
"i  c #4C4B4B",
"p  c #564A45",
"a  c #524E4C",
"s  c #54514E",
"d  c #5A544C",
"f  c #474C50",
"g  c #4D4E51",
"h  c #4E5253",
"j  c #4F555B",
"k  c #4C5858",
"l  c #535353",
"z  c #5A5654",
"x  c #5D5955",
"c  c #555659",
"v  c #585758",
"b  c #55595C",
"n  c #5B5B5C",
"m  c #6A4C49",
"M  c #724E4B",
"N  c #67524C",
"B  c #6B5755",
"V  c #645C55",
"C  c #615E5D",
"Z  c #775C58",
"A  c #67625C",
"S  c #76695C",
"D  c #565E64",
"F  c #5C5E61",
"G  c #615F63",
"H  c #5D6063",
"J  c #5E646D",
"K  c #636364",
"L  c #6A6464",
"P  c #6E6966",
"I  c #64666A",
"U  c #656A6C",
"Y  c #6C6C6D",
"T  c #736A64",
"R  c #726D6A",
"E  c #77716D",
"W  c #656B72",
"Q  c #6C6E72",
"!  c #6D7174",
"~  c #6E757D",
"^  c #757474",
"/  c #7C7673",
"(  c #7C7976",
")  c #75777A",
"_  c #73797D",
"`  c #7C7B7B",
"'  c #815D59",
"]  c #886A68",
"[  c #837568",
"{  c #857B6D",
"}  c #817A74",
"|  c #927B77",
" . c #94836D",
".. c #888279",
"X. c #968A79",
"o. c #727A82",
"O. c #7A7E83",
"+. c #7E8286",
"@. c #78868B",
"#. c #7D848D",
"$. c #7C8994",
"%. c #848383",
"&. c #8A8482",
"*. c #8D8885",
"=. c #82858A",
"-. c #898789",
";. c #8C8C8C",
":. c #928B83",
">. c #918E8D",
",. c #95918E",
"<. c #9E9389",
"1. c #848B94",
"2. c #8B8E93",
"3. c #828E9A",
"4. c #8C9196",
"5. c #8D939B",
"6. c #939393",
"7. c #92969C",
"8. c #99999A",
"9. c #9B9B9C",
"0. c #A59483",
"q. c #A39A8B",
"w. c #A7998B",
"e. c #A39B95",
"r. c #A49B98",
"t. c #A9A29A",
"y. c #B7A997",
"u. c #B7AA9A",
"i. c #BFB19C",
"p. c #959CA5",
"a. c #9A9DA3",
"s. c #9DA1A5",
"d. c #9DA4AA",
"f. c #9FAEBA",
"g. c #A3A3A3",
"h. c #ABA5A3",
"j. c #A3A7AB",
"k. c #A8A8A9",
"l. c #ACABAB",
"z. c #B9AAA7",
"x. c #BAADA4",
"c. c #B2AEAC",
"v. c #BCB1A5",
"b. c #B6B1AD",
"n. c #A7ACB4",
"m. c #A9B1B9",
"M. c #ACB4BA",
"N. c #B3B3B4",
"B. c #B9B5B3",
"V. c #B6B8BA",
"C. c #BCBCBC",
"Z. c #C0AF9A",
"A. c #C1B49E",
"S. c #C3B6A2",
"D. c #C9BAA5",
"F. c #C9BAA6",
"G. c #C7B8B7",
"H. c #C3BEBB",
"J. c #CBC1B5",
"K. c #C5C1BE",
"L. c #D3C9BD",
"P. c #ABB7C3",
"I. c #B5BCC3",
"U. c #B2BAC5",
"Y. c #BCBEC2",
"T. c #BDC0C6",
"R. c #B4C0CC",
"E. c #BCC4CB",
"W. c #BBC5D1",
"Q. c #C4C4C4",
"!. c #C8C7C6",
"~. c #CCC9C7",
"^. c #C3C6CA",
"/. c #C6C9CD",
"(. c #CBCBCC",
"). c #D4CCC3",
"_. c #D2CDCB",
"`. c #D2D0CF",
"'. c #DCD4CA",
"]. c #C6CBD2",
"[. c #CCCED1",
"{. c #C4CBD8",
"}. c #CED1D5",
"|. c #CCD4DC",
" X c #D3D3D4",
".X c #DBD5D4",
"XX c #DCD9D6",
"oX c #D3D6DA",
"OX c #D6D9DB",
"+X c #DCDBDB",
"@X c #E0D9CE",
"#X c #E1DBD4",
"$X c #E1DFDD",
"%X c #E7E4DF",
"&X c #ECE6DE",
"*X c #EDE8DF",
"=X c #CFD6E0",
"-X c #D8DDE2",
";X c #DEE0E3",
":X c #E3E3E3",
">X c #E9E6E4",
",X c #EEEAE3",
"<X c #E4E6EA",
"1X c #E6E8EA",
"2X c #ECEBEB",
"3X c #F0EDE7",
"4X c #F1EFEC",
"5X c #F3F0EC",
"6X c #EBEDF0",
"7X c #F4F4F4",
"8X c #F8F7F6",
"9X c #F9F8F7",
"0X c #F5F6F8",
"qX c #FFFFFF",
/* pixels */
"qXqXqX9XqXqXqXqXqXqXqXqXqXqXqXqXqXqXqXqXqXqXqXqXqXqXqXqXqXqXqXqXqXqXqXqXqXqXqXqXqXqXqXqXqXqXqXqXqXqXqXqXqXqXqXqXqXqXqXqXqXqXqXqX",
"qXqXqXC. XqXqXqXqXqXqXqXqXqXqXqXqXqXqXqXqXqXqXqXqXqXqXqXqXqXqXqXqXqXqXqXqXqXqXqXqXqXqXqXqXqXqXqXqXqXqXqXqXqXqXqXqXqXqXqXqXqXqXqX",
"qXqXqX(.;.9XqXqXqXqXqXqXqXqXqXqXqXqXqXqXqXqXqXqXqXqXqXqXqXqXqXqXqXqXqXqXqXqXqXqXqXqXqXqXqXqXqXqXqXqXqXqXqXqXqXqXqXqXqXqXqXqXqXqX",
"qXqXqX7XY (.qXqXqXqXqXqXqXqXqXqXqXqXqXqXqXqXqXqXqXqXqXqXqXqXqX9X9XqXqXqXqXqXqXqXqXqXqXqXqXqXqXqXqXqXqXqXqXqXqXqXqXqXqXqXqXqXqXqX",
"qXqXqXqX;.( 9XqXqXqXqXqXqXqXqXqXqXqXqXqXqXqXqXqXqXqXqXqXqXqXqX9X9XqXqXqXqXqXqXqXqXqXqXqXqXqXqXqXqXqXqXqXqXqXqXqXqXqXqXqXqXqXqXqX",
"qXqXqXqX/.i (.qXqXqXqXqXqXqXqXqXqXqXqXqXqXqXqXqXqXqXqXqXqXqXqX9X9XqXqXqXqXqXqXqXqXqXqXqXqXqXqXqXqXqXqXqXqXqXqXqXqXqXqXqXqXqXqXqX",
"qXqXqXqX7Xn ` +XOX:XqXqXqXqXqXqXqXqXqXqXqXqXqXqXqXqXqXqXqXqXqX7X8XqXqXqXqXqXqXqXqXqXqXqXqXqXqXqXqXqXqXqXqXqXqXqXqXqXqXqXqXqXqXqX",
"qXqX7X(.l.l i K I h.qXqXqXqXqXqXqXqXqXqXqXqXqXqXqXqXqXqXqXqXqX1X7XqXqXqXqXqXqXqXqXqXqXqXqXqXqXqXqXqXqXqXqXqXqXqXqXqXqXqXqXqXqXqX",
"qXqX(.g 4 < e n l.9XqXqXqXqXqXqXqXqXqXqXqXqXqXqXqXqXqXqXqXqXqXOX:XqXqXqXqXqXqXqXqXqXqXqXqXqXqXqXqXqXqXqXqXqXqXqXqXqXqXqXqXqXqXqX",
"qXqX8X%.2 4 e v V.qXqXqXqXqXqXqXqXqXqXqXqXqXqXqXqXqXqXqXqXqXqX[.;XqXqXqXqXqXqXqXqXqXqXqXqXqXqXqXqXqXqXqXqXqXqXqXqXqXqXqXqXqXqXqX",
"qXqXqX+XC 4 6 e 6.8XqXqXqXqXqXqXqXqXqXqXqXqXqXqXqXqXqXqXqXqXqX(.-XqXqXqXqXqXqXqXqXqXqXqXqXqXqXqXqXqXqXqXqXqXqXqXqXqXqXqXqXqXqXqX",
"qXqXqXqXB.e 4 t n oXqXqXqXqXqXqXqXqXqXqXqX9X9XqXqXqXqXqXqXqXqXQ.OXqXqXqXqXqXqXqXqX2X2XqXqXqXqXqXqXqXqXqXqXqXqXqXqXqXqXqXqXqXqXqX",
"qXqXqXqX9X;.z H.>.;.0XqXqXqXqXqXqXqXqX9XoX^.N.^.0XqXqXqXqXqXqXV./.qXqXqXqXqXqX8X+X XE.<XqXqXqXqXqXqXqXqXqXqXqXqXqXqXqXqXqXqXqXqX",
"qXqXqXqXqX>X!.qX:XR  XqXqXqXqXqXqXqXqX/.[.7X:X^.OXqXqXqXqXqX;X7.d.:XqXqXqXqX9X X<X0X=X^.4XqXqXqXqXqXqXqXqXqXqXqXqXqXqXqXqXqXqXqX",
"qXqXqXqXqXqXqXqXqXh.:.qXqXqXqXqXqXqX1Xp.}.1X/./. X9XqXqXqX+XOX7.p.].2XqXqXqX2Xa.P.d.3.U.`.qXqXqXqXqXqXqXqXqXqXqXqXqXqXqXqXqXqXqX",
"qXqXqXqXqXqXqXqXqX1XE  XqXqXqXqXqXqX>XO.+.=.H U H.9XqXqX4Xn.U.1.1.{.(.9XqXqX2X=.W W J $.H.qXqXqXqXqXqXqXqXqXqXqXqXqXqXqXqXqXqXqX",
"qXqXqXqXqXqXqXqXqXqXh.:.9XqXqXqXqXqXC.K h e 1 n H.qXqXqX2XO.I ` R =.l.7XqXqX>X( O.5.o.` ~.qXqXqXqXqXqXqXqXqXqXqXqXqXqXqXqXqXqXqX",
"qXqXqXqXqXqXqXqXqXqX2X} _.qXqXqXqX9X,.l 6 2 q ! (.:X9XqX7X&.J :.:.4.t.7XqXqXXX^ o._ o.r.#XqXqXqXqXqXqXqXqXqXqXqXqXqXqXqXqXqXqXqX",
"qXqXqXqXqXqXqXqXqXqXqXb.*.9XqXqXqXqXr.i t e u H V.;X7XqX7X>.W X.:.j.c.8XqXqXK.Y b 6 f %.%XqXqXqXqXqXqXqXqXqXqXqXqXqXqXqXqXqXqXqX",
"qXqXqXqXqXqXqXqXqXqXqX4X} _.qXqXqXqX:X} A b 8.N./.0XqXqX7X>.b } } _ b.9X2X(.4.I v < y c ;.OX0XqXqXqXqXqXqXqXqXqXqXqXqXqXqXqXqXqX",
"qXqXqXqXqXqXqXqXqXqXqXqXH.&.;X0XqXqXqX2X/.Q.0X<X}.[.9XqX1X..L { { n 8.:X;X2X-X7.g & w 5.m.W.T.1XqXqXqXqXqXqXqXqXqXqXqXqXqXqXqXqX",
"qXqXqXqXqXqXqXqXqXqXqXqX XI 2. XqXqXqX7XQ.2X0XOXT.F ^..XN.) F { [ 0 Q Y.+X;XOX-X7.j 3.-XM.P.|.^.8XqXqXqXqXqXqXqXqXqXqXqXqXqXqXqX",
"qXqXqXqXqXqXqXqXqXqXqXqXh.Y _ N.qXqXqXQ.k.>XOXa.F < M.:X2X|.7...} J I.;X[.T.-X0X<Xf.P.W.$.$.f.T.XXqXqXqXqXqXqXqXqXqXqXqXqXqXqXqX",
"qXqXqXqXqXqXqXqXqXqXqXqX(.^ 7.O.(.qX9X>.l.>XoX^ * 6.6XqX+X].].q.0.E.oX2X1XoXoXI.<X=Xf.W.R.P.! n.Q.qXqXqXqXqXqXqXqXqXqXqXqXqXqXqX",
"qXqXqXqXqXqXqXqXqXqXqXqXqXk.: F  XqX0X(.7X>X7.- e j.;X[.j.].=Xu.w.1X0X;X^.(.T.8.].E.@.n.M.5.& 3.Y.7XqXqXqXqXqXqXqXqXqXqXqXqXqXqX",
"qXqXqXqXqXqXqXqXqXqXqXqX0Xv   G 9XqX8X2X1X8.t @ Q Y. XQ 6.7X0Xv.q.=X0X9.Q M.(.m.5.@.k @.R.! X k M.(.qXqXqXqXqXqXqXqXqXqXqXqXqXqX",
"qXqXqXqXqXqXqXqXqXqXqXqX7XG L C.l.T.;Xd.` r 1 e a.-XT.e u j.[.v.X._ 5.- e s./.l...J q c s._ c f 3.*.4XqXqXqXqXqXqXqXqXqXqXqXqXqX",
"qXqXqXqXqXqXqXqXqXqXqXqXqX7X9XqXe.i D i t 7 * l OX<XO.$ ; +.E.t.X.U 4.& # @.V.C.x.^ q g +.b C.c & A XXqXqXqXqXqXqXqXqXqXqXqXqXqX",
"qXqXqXqXqXqXqXqXqXqXqXqXqXqXqXqX:XS s V A d e O./. X) # - Q 4.<.X.b D & O %.m.Y.K.t.A V Y P 1X;.$ z v.qXqXqXqXqXqXqXqXqXqXqXqXqX",
"qXqXqXqXqXqXqXqXqXqXqXqXqXqXqXqXqXt.r.J.T d I d.I.Q g $ - c O.l.C.d.I 2 q U j.oXV.[ 0.} v ,.9XQ.=.O.e.qXqXqXqXqXqXqXqXqXqXqXqXqX",
"qXqXqXqXqXqXqXqXqXqXqXqXqXqXqXqXqX%XX.h.V 2 n I.OX1.( e 0 ^ D h H j.C. X>XY.a. XY.R T 0.E e.qXg.#.T.;.1XqXqXqXqXqXqXqXqXqXqXqXqX",
"qXqXqXqXqXqXqXqXqXqXqXqXqXqXqXqXqXqXt.B e 1 H ~ 3.=.a.^ g F c i t l ) j.[.Q.F ;.%.` I E 0.q.2Xb.7.M.f :.9XqXqXqXqXqXqXqXqXqXqXqX",
"qXqXqXqXqXqXqXqXqXqXqXqXqXqXqXqXqXqXB.V 2 e l u c c [.1X/.;.` Y s 6 t 6 u v s 7 d z u b R 0.#Xl.n.+.e / 7XqXqXqXqXqXqXqXqXqXqXqX",
"qXqXqXqXqXqXqXqXqXqXqXqXqXqXqXqXqXqXc.x q f l L c l s.(.[.M.4.! U e > x l 6 u i h i q i v S w.g.E.a.S b.qXqXqXqXqXqXqXqXqXqXqXqX",
"qXqXqXqXqXqXqXqXqXqXqXqXqXqXqXqXqXqX9.! H s.F ) c L x u h h t e 6 C 6 C A U n h l g e i a z 7 l Y r..X9XqXqXqXqXqXqXqXqXqXqXqXqX",
"qXqXqXqXqXqXqXqXqXqXqXqXqXqXqXqXqX7X=.W Y s.: * * 1 h x d p x x d d e ^ ( l.+.g.! g e t e e e e t :.9XqXqXqXqXqXqXqXqXqXqXqXqXqX",
"qXqXqXqXqXqXqXqXqXqXqXqXqXqXqXqXqX2Xa.#.! : O . X O u i e 2 6 7 d 1 t ` ` ` 8.M.l % O O & g E ..,.0.'.qXqXqXqXqXqXqXqXqXqXqXqXqX",
"qXqXqXqXqXqXqXqXqXqXqXqXqXqXqXqXqX$X=.s.n e % . . # i u , u e N ' 6 i ! ..` Q # I C.;   . * 8.~.qXXXy.#XqXqXqXqXqXqXqXqXqXqXqXqX",
"qXqXqXqXqXqXqXqXqXqXqXqXqXqXqXqXqX XK l 0 i t > O & 0 0 1 c s A  .7 k b -.z % @ Q.qX6.. O * ` K.9XqX$Xy.@XqXqXqXqXqXqXqXqXqXqXqX",
"qXqXqXqXqXqXqXqXqXqXqXqXqXqXqXqXqXN.l u t a e.,.@ & i 2 1 e = d  .- q w K E 6 K 8XqX1Xa = 4 P %XqXqXqX%Xy.'.qXqXqXqXqXqXqXqXqXqX",
"qXqXqXqXqXqXqXqXqXqXqXqXqXqXqXqX9X;.n h i L 1X~.* % I q ; O + <. .o o ; +.h.x N.qXqXqXl.7 r A +XqXqXqXqX>Xy.'.qXqXqXqXqXqXqXqXqX",
"qXqXqXqXqXqXqXqXqXqXqXqXqXqXqXqX X! F t s l.qX+X4 % n 6 @   t '.X.@ . @ ! 8./ >XqXqXqX+Xa r z h.qXqXqXqXqX2Xy.).qXqXqXqXqXqXqXqX",
"qXqXqXqXqXqXqXqXqXqXqXqXqXqXqX0X6.O.H t ;.9XqX9X;.% z e % O 9.*XA.k % , l ( *.9XqXqXqX0XL , v k.9XqXqXqXqXqX4Xi.L.9XqXqXqXqXqXqX",
"qXqXqXqXqXqXqXqXqXqXqXqXqXqXqX7X( I H n B.qXqXqX2XA v t 4 6  X*XD.K.p 7 a R g.qXqXqXqXqX;.4 v r.9XqXqXqXqXqXqX7XS.L.9XqXqXqXqXqX",
"qXqXqXqXqXqXqXqXqXqXqXqXqXqXqXqX8.v Q #.;XqXqXqXqXg.x s 6 C 5X&XD.5XE s l K g.qXqXqXqXqXt., 6 *.qXqXqXqXqXqXqXqX8XJ.>XqXqXqXqXqX",
"qXqXqXqXqXqXqXqXqXqXqXqXqXqXqXqXk.l n I +XqXqXqXqX`.n l 7 ^ 9X&XA.9X..r s C 9.qXqXqXqXqX8.> , &.9XqXqXqXqXqXqXqXqXqX9XqXqXqXqXqX",
"qXqXqXqXqXqXqXqXqXqXqXqXqXqXqXqXg.u 1 1 /.qXqXqXqX Xb s 2 ,.qX%XJ.9Xt.2 s =.C.qXqXqXqXqXN., 4 ;.qXqXqXqXqXqXqXqXqXqXqXqXqXqXqXqX",
"qXqXqXqXqXqXqXqXqXqXqXqXqXqXqXqX2.6 : K >XqXqXqX0XB.I H 2 6.qX,XD.9XB.7 n @.l.9XqXqXqXqX2XA , &.9XqXqXqXqXqXqXqXqXqXqXqXqXqXqXqX",
"qXqXqXqXqXqXqXqXqXqXqXqXqXqXqX9X..e 2 l.qXqXqXqX.XV F l 2 h.qX*XF.9XH.r r i 8.qXqXqXqXqXqX,.> ( 9XqXqXqXqXqXqXqXqXqXqXqXqXqXqXqX",
"qXqXqXqXqXqXqXqXqXqXqXqXqXqXqX9X` 4 G 1XqXqXqXqX9Xc.z 4 1 k.qX*XF.qX.Xa , 6 >.9XqXqXqXqXqXk., Y 4XqXqXqXqXqXqXqXqXqXqXqXqXqXqXqX",
"qXqXqXqXqXqXqXqXqXqXqXqXqXqXqXOXK 4 g.qXqXqXqXqXqX5XY t , 8.qX*XS.9X1XC e a %.0XqXqXqXqXqXC.2 !  XqXqXqXqXqXqXqXqXqXqXqXqXqXqXqX",
"qXqXqXqXqXqXqXqXqXqXqXqX2X_.z.-.b i Q.qXqXqXqXqXqX7X^ i 2 B.qX,XF.9X8XE 4 i ( 0XqXqXqXqXqXB.: 5 | 2XqXqXqXqXqXqXqXqXqXqXqXqXqXqX",
"qXqXqXqXqXqXqXqXqXqXqX$X] Z M N i g /.qXqXqXqXqXqX9X..r i ;XqX,XS.9X9X..e r Y 2XqXqXqXqXqX:XP 3 5 | >XqXqXqXqXqXqXqXqXqXqXqXqXqX",
"qXqXqXqXqXqXqXqXqXqXqX7Xr.Z N p i n OX9XqXqXqXqXqXqX8.e A 2XqX,XS.9X7X~ v e C :XqXqXqXqXqXqX9XB.m 8 c.qXqXqXqXqXqXqXqXqXqXqXqXqX",
"qXqXqXqXqXqXqXqXqXqXqXqXqX:X-XXXOX:X9XqXqXqXqXqXqXqXg.e v 1XqX,XS.9X;XL L r n [.qXqXqXqXqXqXqXqXXXB.+XqXqXqXqXqXqXqXqXqXqXqXqXqX",
"qXqXqXqXqXqXqXqXqXqXqXqXqXqXqXqXqXqXqXqXqXqXqXqXqX9X4.v i +XqX,XA.9X.X' M 6 ~ T.qXqXqXqXqXqXqXqXqXqXqXqXqXqXqXqXqXqXqXqXqXqXqXqX",
"qXqXqXqXqXqXqXqXqXqXqXqXqXqXqXqXqXqXqXqXqXqXqXqXqX2X( I r Q.qX,XZ.9Xz.' M e I &.3XqXqXqXqXqXqXqXqXqXqXqXqXqXqXqXqXqXqXqXqXqXqXqX",
"qXqXqXqXqXqXqXqXqXqXqXqXqXqXqXqXqXqXqXqXqXqXqXqXqXG.Z 5 C :XqX,Xi.9Xw.Z Z K 3 M G.9XqXqXqXqXqXqXqXqXqXqXqXqXqXqXqXqXqXqXqXqXqXqX",
"qXqXqXqXqXqXqXqXqXqXqXqXqXqXqXqXqXqXqXqXqXqXqXqX#X] m C XXqXqX,XZ.9X>Xc.`.2X| 5 ' G.qXqXqXqXqXqXqXqXqXqXqXqXqXqXqXqXqXqXqXqXqXqX",
"qXqXqXqXqXqXqXqXqXqXqXqXqXqXqXqXqXqXqXqXqXqXqXqXz.m N ~.qXqXqX3Xi.9XqXqXqXqX:XZ 9 | 0XqXqXqXqXqXqXqXqXqXqXqXqXqXqXqXqXqXqXqXqXqX",
"qXqXqXqXqXqXqXqXqXqXqXqXqXqXqXqXqXqXqXqXqXqXqXqX_.<._.qXqXqXqX4XA.9XqXqXqXqXqXXXX.,.8XqXqXqXqXqXqXqXqXqXqXqXqXqXqXqXqXqXqXqXqXqX",
"qXqXqXqXqXqXqXqXqXqXqXqXqXqXqXqXqXqXqXqXqXqXqXqXqXqXqXqXqXqXqX5XS.9XqXqXqXqXqXqXqX0XqXqXqXqXqXqXqXqXqXqXqXqXqXqXqXqXqXqXqXqXqXqX",
"qXqXqXqXqXqXqXqXqXqXqXqXqXqXqXqXqXqXqXqXqXqXqXqXqXqXqXqXqXqXqX5XJ.9XqXqXqXqXqXqXqXqXqXqXqXqXqXqXqXqXqXqXqXqXqXqXqXqXqXqXqXqXqXqX",
"qXqXqXqXqXqXqXqXqXqXqXqXqXqXqXqXqXqXqXqXqXqXqXqXqXqXqXqXqXqXqXqX9XqXqXqXqXqXqXqXqXqXqXqXqXqXqXqXqXqXqXqXqXqXqXqXqXqXqXqXqXqXqXqX"
};
