/* XPM */
static char *_69f638b1b1b4b8f825324614d6ff4a8Wk5s7EXN820PfUeQ[] = {
/* columns rows colors chars-per-pixel */
"64 32 9 1 ",
"  c #679AC0",
". c #6D9EC4",
"X c #6497BE",
"o c #88B5D5",
"O c #90BBD9",
"+ c #79AACD",
"@ c #72A3C8",
"# c #80B0D1",
"$ c #98BFDC",
/* pixels */
"+++@@@@@@@@@@@....... .    XXXXXXXXXXXXXXXXXXXXXXXXXXXXX X      ",
"@@@@+@@@+@@@@@.......    XXX X  XXXXXX  XXXXXXXXXXXXXXXXX X XXXX",
"@@@@@@@@@@@@@@@@@....       X   X     X     XXXXXXXXXXXXXXXXX XX",
"@@@@@@@@@@@@@@@@.@...   X X XXXXX X XX XX X XXXXXXXXXXXXXXXXXXX ",
"@@.@...@.@@@@@.@.....     XXXXXXXXX XXX XXXXXXXXXXXXXXXXXXXX X  ",
"  . .. ........@.... ...      XXX X XX XXXXXXXXXXXXXXXXXXX X XXX",
"  .   . .................       XX    X  X  XXXXXXX    . .    XX",
" .. . . ............. .       X     XXX X    . ...@.@......    X",
"...............@....         X            ....@@@@@@...... .    ",
"+@@@.... .....@... .          ............@@@@@@.@.@....     X  ",
"+@@@@.............           . ....@@.@.@..............     X XX",
"@@@@.............         X                       X       X XXXX",
"@@..@.......    X     XXX X X XXXXX  XXXXXXXXXXXXX X       XXXXX",
"@..@........ .                XXXXXXXXXXXXXXXXXXX         X  XXX",
"@@@@@.@.@@....@.....        XXXXXXXXXXXXXXXX            XX XXXXX",
"++@@@@@@@+@+@+@+++@@@....      XX XXXXX       .       XXXXXX X  ",
"+++++++++++++++++++@@@..          .                XXXXXX     ..",
"##++++++++++##++++@@@....     .... .   X    XXXX        . ......",
"##++++#++++++++++@@@@@.......@.@.....  XX X     ....@@@@@@@@@@@@",
"#++++#+#+#++++++@++@+@++@@@@+@+@@@@@@........@@@@+++++++#+++++++",
"##+######+#+#####ooooo###o#####+#+++++++@++++####+++#+##oo#+++++",
"####o#o####ooOOO$$$$$Oooooooo#o#######+#+###oo####+++########+++",
"ooOooooooooOO$$$$$$$OOOOOOOOoooooo################++#+++####++++",
"OOoOoooooooOOOOO$$$OOOoOOOOOoOooooooooo#########++++++++++++++++",
"oooooooooooooOOOOoOoOoOOOOOO$$$OOOoooooooo##++++++++++++#+++++++",
"ooo#ooooooooOoOoOOoOoOoOOOO$$$$$Oooooooo######+++++++++#++++++##",
"oooooooOOOO$O$OOOOOOOO$$$$$$$$$OOooooo#o#o#o##############+++###",
"OOO$O$OO$$$$$$$$O$$$$$$$$$OOOOOoooooooo#oo#oo#o##oooo#o##++#+###",
"$$$$$$$$$$$$$$$$$$$$$$OOOOoooooooooo#o#o#oooooooooooooo########o",
"$$$$O$OOO$O$$$$$$$$$$$OOOoOooooooooooooooooooooOOooooOooooooOoOO",
"$$$OOOOOoooooooooOOO$OOOOOOOOOOOoooOoOoOOOOOOO$OOOOOOOOOO$O$O$$O",
"$$$$OOoOooooo####ooooooooooooooooooooooOOOOOOO$$$$OOOO$$$$$$$$O$"
};
