/* XPM */
static char *result[] = {
/* columns rows colors chars-per-pixel */
"64 60 201 2 ",
"   c #0C0B0F",
".  c #0D0D11",
"X  c #100F12",
"o  c #141315",
"O  c #171719",
"+  c #18171A",
"@  c #1B1B1C",
"#  c #211E1F",
"$  c #1E1E20",
"%  c #211F22",
"&  c #242325",
"*  c #2B2827",
"=  c #262529",
"-  c #282729",
";  c #2C2D2C",
":  c #372C2B",
">  c #2F2E33",
",  c #323234",
"<  c #383739",
"1  c #3B3B3A",
"2  c #423535",
"3  c #423D3C",
"4  c #5D3D3C",
"5  c #43403E",
"6  c #3C3D40",
"7  c #444344",
"8  c #4B4543",
"9  c #474847",
"0  c #4C4846",
"q  c #43454A",
"w  c #474A4B",
"e  c #4D4C4B",
"r  c #534C45",
"t  c #5B4F46",
"y  c #514E4D",
"u  c #53504E",
"i  c #4C4E52",
"p  c #4E5254",
"a  c #545354",
"s  c #595554",
"d  c #5C5855",
"f  c #53565A",
"g  c #595759",
"h  c #55595C",
"j  c #5B5B5C",
"k  c #6B4E4D",
"l  c #744E4C",
"z  c #64594F",
"x  c #675657",
"c  c #625A55",
"v  c #625E5B",
"b  c #785856",
"n  c #63615F",
"m  c #6B635E",
"M  c #75685A",
"N  c #555C61",
"B  c #5A5D61",
"V  c #5E6365",
"C  c #5F656A",
"Z  c #5D6670",
"A  c #636264",
"S  c #6B6663",
"D  c #636669",
"F  c #65696C",
"G  c #6B6868",
"H  c #6B6B6C",
"J  c #726B65",
"K  c #726E6D",
"L  c #7F7366",
"P  c #72716D",
"I  c #7B726C",
"U  c #646B72",
"Y  c #6B6D71",
"T  c #706F70",
"R  c #6E7274",
"E  c #6C737C",
"W  c #727374",
"Q  c #7B7672",
"!  c #797877",
"~  c #737579",
"^  c #75797D",
"/  c #7C7C7C",
"(  c #846665",
")  c #8B6F71",
"_  c #847D77",
"`  c #827E7D",
"'  c #84817F",
"]  c #968675",
"[  c #757C83",
"{  c #7B7D82",
"}  c #807F81",
"|  c #7D8386",
" . c #7D838C",
".. c #838385",
"X. c #898684",
"o. c #8E8A86",
"O. c #82858A",
"+. c #888789",
"@. c #85898D",
"#. c #8B8B8C",
"$. c #938984",
"%. c #97928E",
"&. c #868C96",
"*. c #8C8E91",
"=. c #8D9295",
"-. c #8D949B",
";. c gray58",
":. c #989797",
">. c #9E9A97",
",. c #92969A",
"<. c #969A9D",
"1. c #9C9B9B",
"2. c #AD9C8C",
"3. c #A49793",
"4. c #A19D9B",
"5. c #B19F9F",
"6. c #B1A08E",
"7. c #A7A19B",
"8. c #ABA29A",
"9. c #B7A694",
"0. c #959CA7",
"q. c #9A9EA6",
"w. c #A09EA0",
"e. c #B49EA0",
"r. c #9FA2A5",
"t. c #9EA5AB",
"y. c #9FA9B2",
"u. c #A3A4A4",
"i. c #A9A6A3",
"p. c #ADA9A7",
"a. c #A2A5AA",
"s. c #A5A9AD",
"d. c #ADABAB",
"f. c #B3AAA7",
"g. c #B3B0AE",
"h. c #BCB3AE",
"j. c #A6ADB3",
"k. c #AAAEB2",
"l. c #ACB1B6",
"z. c #ADB3B9",
"x. c #B5B4B3",
"c. c #B9B6B4",
"v. c #BBB8B7",
"b. c #B2B6BB",
"n. c #B5B8BB",
"m. c #BBBABB",
"M. c #C0AF9D",
"N. c #C3B5A3",
"B. c #C3B6AA",
"V. c #C6B9AB",
"C. c #CBBCAD",
"Z. c #C1BEBC",
"A. c #CEC2B5",
"S. c #C2C0BF",
"D. c #CEC4B9",
"F. c #D4C7B9",
"G. c #D5CABD",
"H. c #B5BCC0",
"J. c #BABEC2",
"K. c #CCBFC0",
"L. c #BEC1C4",
"P. c #BFC4C9",
"I. c #C5C3C3",
"U. c #C9C6C4",
"Y. c #C9C8C7",
"T. c #C3C6CA",
"R. c #C7C9CC",
"E. c #CACACC",
"W. c #D7CEC6",
"Q. c #D1CECB",
"!. c #D9D2CA",
"~. c #C5CAD1",
"^. c #CBCDD1",
"/. c #CED1D4",
"(. c #D4D4D5",
"). c #D8D6D5",
"_. c #DBD9D6",
"`. c #D5D7DA",
"'. c #D7D8DA",
"]. c #DCDBDB",
"[. c #E3D9CF",
"{. c #E4DDD4",
"}. c #E2DEDD",
"|. c #E4E1DD",
" X c #EAE3DB",
".X c #DEDEE1",
"XX c #DFE1E3",
"oX c #E4E3E3",
"OX c #E9E6E3",
"+X c #E4E6E9",
"@X c #E8E9EA",
"#X c #ECEBEB",
"$X c #F1ECE6",
"%X c #F1EEED",
"&X c #F3F1EC",
"*X c #EDEEF1",
"=X c #EFF1F3",
"-X c #F4F4F4",
";X c #F8F6F4",
":X c #FAF9F7",
">X c #FFFFFF",
/* pixels */
">X>X>X>X>X>X>X>X>X>X>X>X>X>X>X>X>X>X>X>X>X>X>X>X>X>X>X>X>X>X>X>X>X>X>X>X>X>X>X>X>X>X>X>X>X>X>X>X>X>X>X>X>X>X>X>X>X>X>X>X>X>X>X>X",
">X>X>X>X>X>X>X>X>X>X>X>X>X>X>X>X>X>X>X>X>X>X>X>X>X>X>X>X>X@X).:X>X>X>X>X>X>X>X>X>X>X>X>X>X>X>X>X>X>X>X>X>X>X>X>X>X>X>X>X>X>X>X>X",
">X>X>X>X>X>X>X>X>X>X>X>X>X>X>X>X>X>X>X>X>X>X>X>X>X>X>X:X`.c.x.'.-X>X>X>X>X>X>X>X>X>X>X>X>X>X>X>X>X>X>X>X>X>X>X>X>X>X>X>X>X>X>X>X",
">X>X>X>X>X>X>X>X>X>X>X>X>X>X>X>X>X>X>X>X>X>X>X>X>X>X>X/.I.+X-X'.(.-X>X>X>X>X>X>X>X>X>X>X>X>X>X>X>X>X>X>X>X>X>X>X>X>X>X>X>X>X>X>X",
">X>X>X>X>X>X>X>X>X>X>X>X>X>X>X>X>X>X>X>X>X>X>X>X>X>X|.n.+X#X-XXX~.'.>X>X>X>X>X>X>X>X>X>X>X>X>X>X>X>X>X>X>X>X>X>X>X>X>X>X>X>X>X>X",
">X>X>X>X>X>X>X>X>X>X>X>X>X>X>X>X>X>X>X>X>X>X>X>X>X>XE.R.R.j.n.,.&.k.@X>X>X>X>X>X>X>X>X>X>X>X>X>X>X>X>X>X>X>X>X>X>X>X>X>X>X>X>X>X",
">X>X>X>X>X>X>X>X>X>X>X>X>X>X>X>X>X>X>X>X>X>X>X>X>X>XU.R.0.F | E f D (.>X>X>X>X>X>X>X>X>X>X>X>X>X>X>X>X>X>X>X>X>X>X>X>X>X>X>X>X>X",
">X>X>X>X>X>X>X>X>X>X>X>X>X>X>X>X>X>X>X>X>X>X>X>X>X>XU.m.i.g A H f a U.>X>X>X>X>X>X>X>X>X>X>X>X>X>X>X>X>X>X>X>X>X>X>X>X>X>X>X>X>X",
">X>X>X>X>X>X>X>X>X>X>X>X>X>X>X>X>X>X>X>X>X>X>X>X>X>XZ.i.:.V A u.! / .X>X>X>X>X>X>X>X>X>X>X>X>X>X>X>X>X>X>X>X>X>X>X>X>X>X>X+X(.:X",
">X>X>X>X>X>X>X>X>X>X>X>X>X>X>X>X>X>X>X>X>X>X>X>X>X:Xd.i.>.W W *.F } #X>X>X>X>X>X>X>X>X>X>X>X>X>X>X>X>X>X>X>X>X>X>X>X>X-Xn.r..X>X",
">X>X>X>X>X>X>X>X>X>X>X>X>X>X>X>X>X>X>X>X>X>X>X>X>XOXp.x.*.V p h j / -X>X>X>X>X>X>X>X>X>X>X>X>X>X>X>X>X>X>X/.`.-X>X>X/.^ | oX>X>X",
">X>X>X>X>X>X>X>X>X>X>X>X>X>X>X>X>X>X>X>X>X>X:X-X#X_.1.| P u 5 w j :.>X>X>X>X>X>X>X>X>X>X>X>X>X>X>X>X>X>X>XXXj.j.'.u.a / +X>X>X>X",
">X>X>X>X>X>X>X>X>X>X>X>X>X>X>X>X>X>X>X>X-X'./..X].~.@.< p 7 1 7 e u.@X>X>X>X>X>X>X>X>X>X>X>X>X>X>X>X>X>X>X:Xz.j.u.F O.#X>X>X>X>X",
">X>X>X>X>X>X>X>X>X>X>X>X>X>X>X>X>X>X>X-XE.^.=X:X>X=X~.F , ; ; w ~ +.T.(.>X>X>X>X>X>X>X>X>X>X>X>X>X>X>X>X>X#X^.<.R R R.>X>X>X>X>X",
">X>X>X>X>X>X>X>X>X>X>X>X>X>X>X>X>X>X:XI.^.@X>X>X-XH.0.s.w 1 , ^ (.m.^.K.].>X>X>X>X>X>X>X>X>X>X>X>X>X>X:X#Xl.[ Y j V ,.'.>X>X>X>X",
">X>X>X>X>X>X>X>X>X>X>X>X>X>X>X>X>X>X).u.J.P.*X+Xj.D q u.s.^ | s.J.b.-.z.R.-X>X>X>X>X>X>X>X>X>X>X>X>X@XT.| F D h p Y | @.`.>X>X>X",
">X>X>X>X>X>X>X>X>X>X>X>X>X>X>X>X>X>Xc.v.l.z.a.0.F 7 7 V R./.u.u.=.{ &.-.<.|.>X>X>X>X>X>X>X>X>X>X;Xm.=.#.,.F p p V ^ =.T.-X>X>X>X",
">X>X>X>X>X>X>X>X>X>X>X>X>X>X>X>X>X@Xp.J.a.s.~ i 6 w h C H.+XH.<.} B n.0.V m.>X>X>X>X>X>X>X>X>X|.;.P g.*X;X/ f D @.L.-X>X>X>X>X>X",
">X>X>X>X>X>X>X>X>X>X>X>X>X>X>X>X>X(.m.b.=.O.Y 6 O N | n.L.E./.| [ f *.q.q q.:X>X>X>X>X>X>X;XZ.Q %.OX>X>X>Xr.O.L.&X>X>X>X>X>X>X>X",
">X>X>X>X>X>X>X>X>X>X>X>X>X>X>X>X>XQ.'.q.~ g g , . 1 R =.,.R.J.V B R G , - +.-X>X>X>X>X>X_.o.! U.:X>X>X>X>X*X=X>X:X>X>X>X>X>X>X>X",
">X>X>X>X>X>X>X>X>X>X>X>X>X>X>X>X-Xb.j.-.Y 9 7 @ @ ; 1 n =.s.-.p f B T @ < ~ +X>X>X>X%Xg.! i.%X>X>X>X>X>X>X>X>X>X>X>X>X>X>X>X>X>X",
">X>X>X>X>X>X>X>X>X>X>X>X>X>X>X>X`.j.&. .F p 5 + @ , e P T ~ ~ p Y B B + q F #.v.$XQ.' X.(.>X>X>X>X>X>X>X>X>X>X>X>X>X>X>X>X>X>X>X",
">X>X>X>X>X>X>X>X>X>X>X>X>X>X-X].~.y.[ h a P < @ $ 1 9 j j V H g } ~ q > &.t.r.>.o.Q g.;X>X>X>X>X>X>X>X>X>X>X>X>X>X>X>X>X>X>X>X>X",
">X>X>X>X>X>X>X>X>X>X>X>X>X>X].T.0. .H p u.).5 # & 5 5 p a n P J G q > B r.-.=.H.1.E.>X>X>X>X>X>X>X>X>X>X>X>X>X>X>X>X>X>X>X>X>X>X",
">X>X>X>X>X>X>X>X>X>X>X>X>X>X].#.E j.P.s.-X:X7.c ; 5 0 u a A Q _ g , f D Q f i B X.Q.>X>X>X>X>X>X>X>X>X>X>X>X>X>X>X>X>X>X>X>X>X>X",
">X>X>X>X>X>X>X>X>X>X>X>X>X>X:Xp.Y E t./.>X>XZ.J 3 y a g j J Q J v S B.C.] r y d o.@X>X>X>X>X>X>X>X>X>X>X>X>X>X>X>X>X>X>X>X>X>X>X",
">X>X>X>X>X>X>X>X>X>X>X>X>X>X>X_.| E C #.:X>XS.S 5 y n c n m m m _ B.C.2.t 8 S 4.OX>X>X>X>X>X>X>X>X>X>X>X>X>X>X>X>X>X>X>X>X>X>X>X",
">X>X>X>X>X>X>X>X>X>X>X>X>X>X>X-X;.f p D #X;X8.o.9 y F / ' ' _ 8.C.2.f.$Xc.4.U.:X>X>X>X>X>X>X>X>X>X>X>X>X>X>X>X>X>X>X>X>X>X>X>X>X",
">X>X>X>X>X>X>X>X>X>X>X>X>X>X>X>Xc.h C H #X].%.7.p p F t.l.^.!.N.( 5 K #X>X>X>X>X>X>X>X>X>X>X>X>X>X>X>X>X>X>X>X>X>X>X>X>X>X>X>X>X",
">X>X>X>X>X>X>X>X>X>X>X>X>X>X>X>X|.T B d J.D.$.#.a w h O.v.A.] z 5 s 8 4.>X>X>X>X>X>X>X>X>X>X>X>X>X>X>X>X>X>X>X>X>X>X>X>X>X>X>X>X",
">X>X>X>X>X>X>X>X>X>X>X>X>X>X>X>XI.m n j :.f.' j p h ..B.9.M t 0 5 5 u S (.;X>X>X>X>X>X>X>X>X>X>X>X>X>X>X>X>X>X>X>X>X>X>X>X>X>X>X",
">X>X>X>X>X>X>X>X>X>X>X>X>X>X>X).J j n S ` 8.Q e H f.N.] r 7 a u u n S s Q I.:X>X>X>X>X>X>X>X>X>X>X>X>X>X>X>X>X>X>X>X>X>X>X>X>X>X",
">X>X>X>X>X>X>X>X>X>X>X>X>X>X>X8.n c d H <.1.~ ] A.6.z 1 9 j G G m n D a e :.>X>X>X>X>X>X>X>X>X>X>X>X>X>X>X>X>X>X>X>X>X>X>X>X>X>X",
">X>X>X>X>X>X>X>X>X>X>X>X>X>X>X].7.I c ^ XX*XS.h.L u u ! s T T H S j D E q { +X>X>X>X>X>X>X>X>X>X>X>X>X>X>X>X>X>X>X>X>X>X>X>X>X>X",
">X>X>X>X>X>X>X>X>X>X>X>X>X>X>X>X:XOX7.| y._.p.8 % 7 W k.Y q.@.j , @ @ 6 q [ ^.@X>X>X>X>X>X>X>X>X>X>X>X>X>X>X>X>X>X>X>X>X>X>X>X>X",
">X>X>X>X>X>X>X>X>X>X>X>X>X>X>X>X>X>X!.| C S n 5 , V =.0.f -.A + .   .   . > O.(.>X>X>X>X>X>X>X>X>X>X>X>X>X>X>X>X>X>X>X>X>X>X>X>X",
">X>X>X>X>X>X>X>X>X>X>X>X>X>X>X>X:X X2.L d n n 9 p | z.*.f R A o . . X . = 6 A *X>X>X>X>X>X>X>X>X>X>X>X>X>X>X>X>X>X>X>X>X>X>X>X>X",
">X>X>X>X>X>X>X>X>X>X>X>X>X>X>X&XG.M.D.{.g.g.' d e R k.=.H n.-X+.O . X + e U C `.>X>X>X>X>X>X>X>X>X>X>X>X>X>X>X>X>X>X>X>X>X>X>X>X",
">X>X>X>X>X>X>X>X>X>X>X>X>X:X{.C.C.|.>X>X>X|.P j p V | | u.>X>X:X:.% . & e A U w.>X>X>X>X>X>X>X>X>X>X>X>X>X>X>X>X>X>X>X>X>X>X>X>X",
">X>X>X>X>X>X>X>X>X>X>X>X$XG.V.!.;X>X>X>X>X_...n e p V A U.>X>X>X>Xc.= - y g E [ -X>X>X>X>X>X>X>X>X>X>X>X>X>X>X>X>X>X>X>X>X>X>X>X",
">X>X>X>X>X>X>X>X>X>X;X[.V.A.$X>X>X>X>X>X>XQ.*.A 0 9 9 v OX>X>X>X>X>X*.# 0 u F E E.>X>X>X>X>X>X>X>X>X>X>X>X>X>X>X>X>X>X>X>X>X>X>X",
">X>X>X>X>X>X>X>X>X XA.V.{.>X>X>X>X>X>X>X>XS.+.j y e 0 o.>X>X>X>X>X>X#X7 * r j E -.:X>X>X>X>X>X>X>X>X>X>X>X>X>X>X>X>X>X>X>X>X>X>X",
">X>X>X>X>X>X>X&XW.B.G.&X>X>X>X>X>X>X>X>X>X1.W j u u u Y.>X>X>X>X>X>X>XI.6 ; g  .&.'.>X>X>X>X>X>X>X>X>X>X>X>X>X>X>X>X>X>X>X>X>X>X",
">X>X>X>X>X;X XC.C.|.>X>X>X>X>X>X>X>X>X>X-X;.i g s a K #X>X>X>X>X>X>X>X>X` @ w ~  .O.-X>X>X>X>X>X>X>X>X>X>X>X>X>X>X>X>X>X>X>X>X>X",
">X>X>X>X$XG.C.!.;X>X>X>X>X>X>X>X>X>X>X>X_.X.6 a a y 1.>X>X>X>X>X>X>X>X>XA $ e f A } -X>X>X>X>X>X>X>X>X>X>X>X>X>X>X>X>X>X>X>X>X>X",
">X>X-X[.C.F.%X>X>X>X>X>X>X>X>X>X>X>X>XQ.4.~ 7 a g y U.>X>X>X>X>X>X>X>X:Xj o 7 a a g.>X>X>X>X>X>X>X>X>X>X>X>X>X>X>X>X>X>X>X>X>X>X",
":X XF.A.{.>X>X>X>X>X>X>X>X>X>X>X>X>X%Xd.w.R a B j s ).>X>X>X>X>X>X>X>X>XG % e g g P S.>X>X>X>X>X>X>X>X>X>X>X>X>X>X>X>X>X>X>X>X>X",
"{.C.W.;X>X>X>X>X>X>X>X>X>X>X>X>X>X>X-Xq.U g a j j H @X>X>X>X>X>X>X>X>X-Xj & e j B 4._.>X>X>X>X>X>X>X>X>X>X>X>X>X>X>X>X>X>X>X>X>X",
"$XOX>X>X>X>X>X>X>X>X>X>X>X>X>X>X>X>X#XG i 0 0 y u u.>X>X>X>X>X>X>X>X>X-X! - 1 j H OX>X>X>X>X>X>X>X>X>X>X>X>X>X>X>X>X>X>X>X>X>X>X",
">X>X>X>X>X>X>X>X>X>X>X>X>X>X>X>X>X>X].y 7 8 1 a x.:X>X>X>X>X>X>X>X>X>X>Xv., 1 g T @X>X>X>X>X>X>X>X>X>X>X>X>X>X>X>X>X>X>X>X>X>X>X",
">X>X>X>X>X>X>X>X>X>X>X>X>X>X>X>X>X>XY.g 0 5 r K.>X>X>X>X>X>X>X>X>X>X>X>X+Xv a j K #X>X>X>X>X>X>X>X>X>X>X>X>X>X>X>X>X>X>X>X>X>X>X",
">X>X>X>X>X>X>X>X>X>X>X>X>X>X>X>X>X>Xc.y 5 2 1.>X>X>X>X>X>X>X>X>X>X>X>X>X>X..e j T #X>X>X>X>X>X>X>X>X>X>X>X>X>X>X>X>X>X>X>X>X>X>X",
">X>X>X>X>X>X>X>X>X>X>X>X>X>X>X>X>X:X:.0 < K %X>X>X>X>X>X>X>X>X>X>X>X>X>X>Xx.e g W %X>X>X>X>X>X>X>X>X>X>X>X>X>X>X>X>X>X>X>X>X>X>X",
">X>X>X>X>X>X>X>X>X>X>X>X>X>X>X>X>XK.G 8 2 I.>X>X>X>X>X>X>X>X>X>X>X>X>X>X>XI.e a F '.>X>X>X>X>X>X>X>X>X>X>X>X>X>X>X>X>X>X>X>X>X>X",
">X>X>X>X>X>X>X>X>X>X>X>X>X>X>X>X@X} B 3 r OX>X>X>X>X>X>X>X>X>X>X>X>X>X>X>Xv., q Z a.>X>X>X>X>X>X>X>X>X>X>X>X>X>X>X>X>X>X>X>X>X>X",
">X>X>X>X>X>X>X>X>X>X>X>X>X>X>X>X.XA a x m |.>X>X>X>X>X>X>X>X>X>X>X>X>X>X>Xd.f B U a.K.:X>X>X>X>X>X>X>X>X>X>X>X>X>X>X>X>X>X>X>X>X",
">X>X>X>X>X>X>X>X>X>X>X>X>X>X>X>X-X..x ( l f.>X>X>X>X>X>X>X>X>X>X>X>X>X>X>Xm.N i f v ( e.}.:X>X>X>X>X>X>X>X>X>X>X>X>X>X>X>X>X>X>X",
">X>X>X>X>X>X>X>X>X>X>X>X>X>X>X>X>XI.b ( l (  X>X>X>X>X>X>X>X>X>X>X>X>X>X>X'.Y h 3 : 4 b ) e.oX>X>X>X>X>X>X>X>X>X>X>X>X>X>X>X>X>X",
">X>X>X>X>X>X>X>X>X>X>X>X>X>X>X>X>X>X3.l ( l 5.>X>X>X>X>X>X>X>X>X>X>X>X>X>X>X+X(.m.4.W k k k 3.:X>X>X>X>X>X>X>X>X>X>X>X>X>X>X>X>X",
">X>X>X>X>X>X>X>X>X>X>X>X>X>X>X>X>X>X@X$.l b h.>X>X>X>X>X>X>X>X>X>X>X>X>X>X>X>X>X>X>X:XoXK.b.oX>X>X>X>X>X>X>X>X>X>X>X>X>X>X>X>X>X"
};
