/* XPM */
static char *result[] = {
/* columns rows colors chars-per-pixel */
"64 64 41 1 ",
"  c white",
". c #28282A",
"X c #323234",
"o c #E9E9E9",
"O c #757677",
"+ c #5F5F5F",
"@ c #121115",
"# c black",
"$ c #515151",
"% c #4C4B4B",
"& c #1D1D20",
"* c #575656",
"= c #3B3B3C",
"- c #7B7C7E",
"; c #C0C1C2",
": c #B1B1B2",
"> c #5A5A5B",
", c #F3F3F3",
"< c #8C8B8B",
"1 c #6B6C6C",
"2 c #161519",
"3 c #848485",
"4 c #727071",
"5 c #EEEEEF",
"6 c #919192",
"7 c #DADADB",
"8 c #636464",
"9 c #9A9A9B",
"0 c #F9F9F9",
"q c #B9B9B9",
"w c #D3D4D5",
"e c #E1E1E1",
"r c #A5A5A6",
"t c #C8C8C8",
"y c gray99",
"u c #434344",
"i c #676768",
"p c #0E0D11",
"a c #9F9F9F",
"s c #AAABAB",
"d c #CBCDCF",
/* pixels */
"################################################################",
"                              0oy                               ",
"                             5ew7o                              ",
"                            5oy5odo                             ",
"                           0;:;9rwt0                            ",
"                           7-*$u$6:o                            ",
"                           q$uu=%49e                            ",
"                           ;$u%u%-ro                            ",
"                           w>19<<::5                            ",
"                           e6t 0,eq5                            ",
"                           odo0ew;so                            ",
"                          y76O+$$%$;                            ",
"                        0o7;+&2&2&=awey                         ",
"                       ,eo5dOu.&&&>d7qt,                        ",
"                      07o,;:d:-116s9t5td0                       ",
"                      ode;ty owo50 e<:,t7                       ",
"                     0ts3<e,5ww,  5t:<:wq,                      ",
"                     oaOX8;wewwo y7s9q1r:7                      ",
"                     768Xirqdww75od6-:-8:;y                     ",
"                    yt-uX49a:;;;w;9186<X6q,                     ",
"                    ,r1XX1339raar9O>*3O28re                     ",
"                    o6i==+4O3<3OOOi>>->X>9t                     ",
"                    ;-+..*81141+i8>$83$Xu-q5                    ",
"                   y9+$X4%+i88>>+*$$11--=$a7                    ",
"                   73>.Xq$>i+>*>*$$>O+s;.%-to                   ",
"                  079$&i,O$8+>***$$+O8e,*=O:d,                  ",
"                  t9O$.a r%8+>*$$$$+i30 9Xi4-d                  ",
"                  w1*$Xq t%>+>**$$*8>s  :.$*4e                  ",
"                   s*$Xt t%8arra6<6sO<0 ;X%*;                   ",
"                   w8$=; 9u-7o,57d;7:4o :u$1e                   ",
"                   o4u.a,i%Oqq:q93<r;Oq q.=O5                   ",
"                  o3+%=q7$$i<<3-8+1-r3<,6=%+<,                  ",
"                  rXu%.>r%>4OOO1++8O66-;X.uu=7                  ",
"                  ;=..2>3$+OO4141+84<r3;*2..-,                  ",
"                  y:%X.ra>8O-O118+i4<s67<Xu35                   ",
"                   ,-%=1-X%iO41i88i18$$3==%s                    ",
"                   7=..X=.@&.X===X.&2@&X22@6                    ",
"                   o=p&4$*Xpppp.2ppp@@u1.p@r                    ",
"                   y-2&qq14X@pp<$p@@@u<wi@=7                    ",
"                    o96ooO-$@@&t9ppp.-65wrw                     ",
"                        ,3O$2@=ow.p@X-90                        ",
"                        ,<O$&26 ,%@2X-ry                        ",
"                        06Ou@2s yi@@.O:                         ",
"                        03i.@&:  -@@.4:                         ",
"                        ,O.@@&;  <@@@=r                         ",
"                        5OX@@.7  r2@pX9y                        ",
"                        eO*.&uo  a&&&$60                        ",
"                        7<9.2$,  9&&=O60                        ",
"                        t<-&2+y  q&2%:6,                        ",
"                        q>&224   ;&2&O35                        ",
"                        w=@2@1y  :22@&4o                        ",
"                        7X@22+0  6&&22-y                        ",
"                        5+..=10  9=uXXa                         ",
"                        ,3>$%3   ;%$$*w                         ",
"                         9*$%;   e>$$45                         ",
"                         s$$>e   5i$%6                          ",
"                         q$%1,   04%$q                          ",
"                        7<$%40   o+%$a0                         ",
"                       o38*$+5   e$$>+q                         ",
"                       e4++>*w   q$++*a                         ",
"                       ,<$13Oo   d3-++t                         ",
"                        5<$%40   ,4>i:                          ",
"                         ,6*:     t<:,                          ",
"################################################################"
};
