/* XPM */
static char *b6e5d4acd777481485aee689dca22107gDLLNHOJqs1Indfo[] = {
/* columns rows colors chars-per-pixel */
"64 64 186 2 ",
"   c #0D0702",
".  c #140C05",
"X  c #190F06",
"o  c #130D08",
"O  c #180F08",
"+  c #171106",
"@  c #1B1107",
"#  c #17100A",
"$  c #1D140A",
"%  c #1F190A",
"&  c #1F1811",
"*  c #21160B",
"=  c #241A0D",
"-  c #2A1E0E",
";  c #251C11",
":  c #2A1E11",
">  c #2D220F",
",  c #33250F",
"<  c #2D2113",
"1  c #2E251A",
"2  c #332514",
"3  c #392713",
"4  c #362916",
"5  c #3B2A16",
"6  c #32261A",
"7  c #35291B",
"8  c #3B2C1C",
"9  c #37311D",
"0  c #3E301D",
"q  c #342B21",
"w  c #3A2E21",
"e  c #3E3223",
"r  c #3E3429",
"t  c #402F1C",
"y  c #42311C",
"u  c #48351E",
"i  c #4A381D",
"p  c #433423",
"a  c #483723",
"s  c #473926",
"d  c #4B3A25",
"f  c #433629",
"g  c #453A2B",
"h  c #4C3C2B",
"j  c #513D26",
"k  c #503E29",
"l  c #453B31",
"z  c #4A3E32",
"x  c #4E402D",
"c  c #53422D",
"v  c #58452D",
"b  c #5F492F",
"n  c #4E4233",
"m  c #4F443A",
"M  c #544533",
"N  c #584732",
"B  c #574835",
"V  c #5B4A35",
"C  c #52473A",
"Z  c #554A3C",
"A  c #5C4D3B",
"S  c #5E513D",
"D  c #614E35",
"F  c #604F3A",
"G  c #645137",
"H  c #63523D",
"J  c #69563D",
"K  c #6D593E",
"L  c #715C3F",
"P  c #554C42",
"I  c #5A4E41",
"U  c #5D5144",
"Y  c #5E554A",
"T  c #645543",
"R  c #685742",
"E  c #665845",
"W  c #6C5B44",
"Q  c #625649",
"!  c #65594C",
"~  c #6C5D4B",
"^  c #715E45",
"/  c #715F49",
"(  c #655B51",
")  c #695F52",
"_  c #6E604D",
"`  c #756146",
"'  c #796346",
"]  c #74624C",
"[  c #79654C",
"{  c #7C684E",
"}  c #6D6153",
"|  c #6E655A",
" . c #746552",
".. c #796750",
"X. c #766855",
"o. c #7C6B54",
"O. c #726758",
"+. c #756959",
"@. c #7B6D5A",
"#. c #7E715E",
"$. c #756C62",
"%. c #796F62",
"&. c #7D7263",
"*. c #7D756C",
"=. c #816C4F",
"-. c #826E54",
";. c #816E58",
":. c #847156",
">. c #897456",
",. c #83735C",
"<. c #89765B",
"1. c #8C795D",
"2. c #927C5E",
"3. c #847562",
"4. c #887761",
"5. c #867964",
"6. c #8B7B64",
"7. c #807668",
"8. c #857A6A",
"9. c #8B7D6A",
"0. c #917E64",
"q. c #907F68",
"w. c #877D72",
"e. c #897F71",
"r. c #8F8065",
"t. c #8E806C",
"y. c #938166",
"u. c #93836D",
"i. c #99866A",
"p. c #9B8A6D",
"a. c #8D8272",
"s. c #938672",
"d. c #968974",
"f. c #9A8B74",
"g. c #918779",
"h. c #968A7A",
"j. c #9B8D7B",
"k. c #9E917D",
"l. c #A18E6F",
"z. c #A08F75",
"x. c #A49376",
"c. c #A2937C",
"v. c #A8977A",
"b. c #A7987B",
"n. c #AA997D",
"m. c #988F83",
"M. c #979087",
"N. c #9D9282",
"B. c #9D958A",
"V. c #A29583",
"C. c #A59985",
"Z. c #A99B85",
"A. c #A1978A",
"S. c #A59A8A",
"D. c #AA9D8B",
"F. c #A79E90",
"G. c #A89F91",
"H. c #ADA18D",
"J. c #B2A48D",
"K. c #B9AA8F",
"L. c #ADA293",
"P. c #AFA492",
"I. c #AFA79C",
"U. c #B1A692",
"Y. c #B2A693",
"T. c #B4A995",
"R. c #B5AA96",
"E. c #B9AC94",
"W. c #B1A79A",
"Q. c #B4AA9A",
"!. c #B6AC99",
"~. c #B9AD9B",
"^. c #B8AE9A",
"/. c #B8AE9D",
"(. c #BBB09F",
"). c #BDB19D",
"_. c #B6ADA0",
"`. c #B9AFA1",
"'. c #BDB3A3",
"]. c #BEB5A9",
"[. c #BFB8AE",
"{. c #C0B39E",
"}. c #C1B6A5",
"|. c #C3B8A6",
" X c #C3BAAB",
".X c #C4BCB0",
/* pixels */
"~ A V H R F F _ ~ U X.4.e...q.W.3.F F J W X.,.5.E < 6 ; 1 8 < < * x 9.%.g % > u d d c g x _ H.P.I.H.k.a.P.!.#.x s t.k.B.T.c.X.X.",
"x R F o.q.^ / ~ +.o.;.m.N.-.q.Y.f.W J H W X.~ S E } 9.a.3.r + + ; X.9.S.B._ - , 8 X.6.#.s.L.!.P./.P.P.d.). XH.B V a.g.a.S.P.{ S ",
"Z o./ E s.N.e.;.;.9.9.h.s.3.;.S.c.,.v k M R &.3.@.9.g.N.P.d.T e 2 E 7.N.P.N.8 - c Z.!.Z.P.].'.(.!.!.T.P.T. X).E  .C.s.h.B.T.j.x ",
"~ ;. . .4.s.m.8.! X.;.} o.z.4.4.h.9.J V ;.N.u.9.6.t.g.h.j.D.Y.V.h S a.k.H.H.x , V f.).H.k.'.).!.E.T.H.!.!.|.'.X.X.C.u.d.B.H.T. .",
"+./ W ;.9.+.] X.T F T A F 4.h.j.j.j.s.C.D.m.3.;.3.g.g.g.X.1.f.c.W T s.h.S.T.Z , G ] x.J.Z.T.(.Y.H.H.!.K./.T.).r.X.d.r.d.C.C.P.H.",
"o...T T o.+.T ;./ 5 3 V 9.A.H.Q.C.s.4.Z.6.h.g.3.9.a.8.h.s.3.6.u.W ~ #.a.a.T.Y 4 ,.` 6.H.Y.V.Z.c.b.H.!.!.).H.Y.#.t.k.5.d.k.V.S./.",
"..4.W A M V U N p t F 9.S.T.L.T.S.] / j.3.A.j.3.9.g.8.3.j.f.u.4.J 8.X.@.h.S.} 9 u.r.1.k.J.H.H.h.N.P.T.K. XK.P.#.k.k.X.r.k.S.k.H.",
"3.6./ T F F R a 8 M 4.N.A.H.D.Q.C.T A 9.s.G.S.C.u.s.j.o.9.,.] E W h.&.T #.k.#.u K K J o.H.T.T.T.!.P.k.r.|.!.k._ k.b.:.X.g.S.S.V.",
"h ..! F H k t t k } e.z.S.D.V.W.k.B V 8.5.L.W.L.u.9.h.3.9.5.H ` ] 3.] Z A t.#.8 V { W ,.d.k.b.P.!.H.u.r.'. Xg.x k.H.d.S #.b.D.k.",
"O p R D k t z 3.q.e.V.m.S.L.A.L.j.V B 9.7.A.L.V.6.,.t.8.3.6.o.o.x M ~ _ S &.+.4 a ` ` ] y.u.] <.r.#.r.r.k.k.8.> ( d.x.{ _ d.D.L.",
"$ : p t < * T D.h.h.S.D.F.L.Q.{.V.T h o.9.k.N.j.u.o.] _ @.d.y.,.y 2 0 B _ s.~ % > 9 d v o.C.u.` p.d.W _ #.r.+.+ 9 C.(.k.X.5.k.L.",
"z k B z < * ~ h.;.3.q.j.A.A.S.}.W.~ d h X.h.V.N.d.,.] W ~ d.u.6.u 2 < < p U A p B J x 0 d W u.o.r.H.o.{ S #.+.# o Z h.H.u.#.b.k.",
"z.z.q.V./ q / 9.~ Q ..3.q.m.V.`.'.@.h 8 h 3.V.S.h.o.] ] A o.u.4.5 < < = 8 @.8.M.I.~.C.&.S 9 i v S f.d.@.o.d.!     o s 5.r.r.5.S ",
"z.q.0.n.q.k ;.q.;.;.;.;.q.q.q.L.`.3.c s a 9.j.c.H.6.W G H W <.X.- * * 6 &.A._.L.I.[..X[.T._ 5 3 , ` f.,.5.r.9 +     > _ _ E h 9 ",
"Z.j.i.v.q.D q.q.;.e.4.;.q.q.q.V.L.5.V c a ,.j.f.T.@.H G W / 6.q.x p A 8.S.D.Q.N.I.[.]..X X'.@.i x K V.5.5.5.m 1 Z } 8.H.5.E j 9 ",
"n.z.p.v.q.R e.m.8.q.9.3./ 4.q.N.C.s.E V d 3.n.-.f.W ] { W ,.o.;.X.h.P.W.Q.Q._.a.B.!.Q.]..X.XH.9 i b d.f.@.5.d.h.H.b.Z.).|.|.k.% ",
"<.:.1.i.>.B h.V.8.9.4.w.R =.} q.N.w.4.-.N F 4.=.d.-.J R k T R 3.D.`._.V.W.W._.w.;.H.L.L. X.X}.g > , y S H <.X.d.V.p.r.).).E.)._ ",
"-.<.` K c s ;.V.g.;.=.3.=.;.F N 4.4.q.q.R k t u R / t 3 * w } 9.e.W.B.N.D.V.L.N.e.s.C.T.`. X XY $ = 2 c ,.f.] @.k.k.#.k.K.J./.d.",
"' 2.p.K 2 ; f F A N h F / ;.A u R 4.S.D.q./ f z [ / - * - / 9.8.4.S.W.V.S.q.D.z.A.f.9.Q.`.}.}.@.8 c K ` <.r.5.1.t.<.t.y.b.H.H.H.",
"' >.i.H = O 2 t 3 3 3 3 t N h k ;.q.j.V.N.c.D.L.D.q.t = 5 ;.d.;.O.8.L.L.D.V.D.m.S.L.h.A.Q.`.{.d.r.6.>.{ <.5.X.y.t._ _ r.p.b.x.H.",
"-.2.z.N * . O 2 6 3 t t 3 t b ;.q.q.q.V.V.D.L.Y.J.Y.I : k q.e.} ~ R 9.e.A.V.N.q.A.Q.S.V.D.~.}.x.p.u.-.:.1.5.} #.x.<.:.<.l.p.x.v.",
"2.i.q.7 . # : r I ;.;.U N F ^ -.q.z.c.V.q.V.Z.~.J.J.;.: R q.V.~ I F ;.D.A.V.z.e.s.G.m.,.h.Y.`.l.i.f.{ ' :.,.t.y.H.x.i.p.r.>.>.i.",
"2.i.U O O C +.3.w.9.j.D.q.q.J R q.L.D.V.4.q.c.~.}.{.e.8 / 4.N./ ~ } ] A.D.m.V.c.e.c.0.;.3.f.}.n.p.l.>.^ { 5.f.Z.H.H.y.1.` { >.1.",
"D F t w C ) ]  ./ ;.;.q.D.D.;.R 4.c.q.4.=.=.q.C.C.Y.q.t k k O./ R ;.;.4.q.e.V.V.S.A.f.] ..0.~.Z.p.v.p.` @.<.u.v.K.K.x.>.K >.=.>.",
"= * u R ~ } / / ..X.;.;.4.q.A.w./ =.R / ;.;.;.V.V.V.q.t N N z  .~ 4.q.7.R -.m.N.S.D.C.o.W o.~.u.L p.i.<.,.y.0.0.1.:.p.p.{ ` W K ",
"u : k ] $.../ ;.;.;.;.;.;.-.;.q.;.f N ;.4.N.q.s.V.j.s.a b / T / ~ ;.;.} R A q.q.f.D.Z.c.F R Z.9.D ' 6.:.<.u.-.^ x 3 x <.` 4 4 d ",
"k p ! $.$...;.<.;.;.;.[ / -./ R 4.4.N N R R ;.V.q.8.q.F b ,./ N k F T [ =.F T 9.9.C.9.X.k N ,.] b L <.<.:.#.u.^ c c , 8 4 p V u.",
"H F $.;.X.;.;.,.2.<.;.;.-.=./ R ^ ;.j.g.;.N N / N ;.w.=.k ;.~ d N h a N F / N R ,.u.d.] M d 6.A b S K [ ` V ;.-.x x 4 s R j.T.!.",
"H  .8.;.3.;.;.<.;.;.,.0.-.-.=.R / / =.4.q.4./ 3 w 8.N.7.= F C t v c F R R ;.F R [ ..d.X.V 4 8 : 5 5 i c k K 0.<.M h o.0.6.i.C.}.",
"R 3.8.;.3.;.;.;.-.=.=.-.;./ / =./ =.=.;.;.-.R : * A F ( * : * 2 t a R 3.;.O./ R M V T N 0 = ; - 3 i 3 y j D D / s.] -.f.f.h.y.H.",
"I ~ ] ..-.-.=.=.-.-.=.-.4.;.=.^ =.R / ;.q.-.R : O = 3 7 = = * < 3 u h / 8./ ;.C u p e e x x h 2 4 8 , 9 4 3 a F s.;.' u.C.C.6.9.",
"p R ..;.;.;.;.:.>.<.-.=.>.q.4.=.=./ / F -.=.;.: O O = = : 6 : : 2 2 3 k R =.R a 5 < 0 J d.g.#.} ~ H _ E T k N R f.u.{ f.Y.Y.f.f.",
"t ! / o.;.-.-.-.=.=.[ [ ^ [ >.:.-.-.o./ W ' T $   . = = k Q Z k M A R F ^ ;.a t , 0 V S @.s.D.D.L.D.W.S.G.s. ./ h.s./ u.D.~.Z.x.",
"p T ......-.:.-.=./ [ [ =.[ -.:.=.] ' / W R f . X X < F d.z.A.A.V.q.q.q.q.q.t 3 8 x x c S #.j.k.D.W.D.N.S.W.9...c.Z.<.q.C.!.Z.j.",
"w Z / ....[ =.;.:.-.-.[ =.[ -.=.=...-.{ ^ W M ; - 3 k s.V.z.s.V.Z.q.q.0.V.q.T t c H A U E 3.f.h.A.V.N.m.j.~.C.o.d.c.4.6.u.D.J.9.",
"q A W [ ^ ^ ' =.-.-.-.;.-.=.-.-.[ ;...H F { W B  .N ;.N.V.q.9.j.V.V.E.J.Z.c.V.F v ~ E ] +.9.j.3.m.G.V.C.N.D.Y.3.4.s.s.u.6.C.H.x.",
"7 n M ] ' / ^ ^ [ -./ [ @.o.1.0.=./ R F k +.6.d.N.V _ 8.q.9.9.V.V.Z.V.V.Z.j.D.-.b o.X.*.9.h.s.O.7.D.j.V.j.N.m.9.C.h.N.x.-.<.j.b.",
"6 Z Z ) ..{ ' [ ^ / ^ / W ` -.{ -.-.W N V ;.9.9.6.J k ../ <.j.N.D.D.V.V.D.V.N.4.J 1.6.a.j.t.U O.w.D.D.c.A.V.s.%.H.g.3.6.6.y.1.V.",
"< M A ! X./ / ../ ^ / ..W W [ ' ^ o.B t h N  .;.<. .k  ...-.s.j.D.D.V.q.V.D.V.q.J :.6.j.g.j.! C 8.A.L.L.D.S.h.o.M.+.#.<.u.o...t.",
"6 g A B R W R / / W ^ / ] J { { f p s M k j R -.W / w -.;.4.s.z.D.Y.D.V.A.`._.3.V ~ o.5.N.A.9.O.} 8.g.F.L.Q.N.%.L.,.r.y.f.r.t.] ",
"1 p A R V B A R W R J R ^ F h 7 * 8 o.6.E A D [ W H 7 ] 3.4.u.C.D.C.D.D.G._.m.M A X.4.5.j.g.X.8.&.w.a.h.M.S.a.~ Q.t.<.k.b.k.H.<.",
"; : z E B d M c N W W V e : @ . - y ] f.<.^ ^ ] W } 0 ] 6.9.<.f.V.q.q.V.f.C.T M } 9.u.u.d.9.Q 8.h.h.h.a.5.a.s.S B.k.o.u.b.Z.P.V.",
"; * < f h g h c k M p * $ ; $ . < p M o.-.G G o.o.9.w [ ,.0.q.f.q.q.4.V.h.N.d N @.s.f.c.D.h.U E a.M.A.B.8.} @.n t.S.s.h.i.H.T.f.",
"6 1 : ; : 4 h p t 4 7 w A C 8 = 5 g c D J D v W @.t.w W 4.6.u.u.q.4.;.Y.L.9.3 T &.6.6.V.T.H. .~ 9.M.M.B.a.T V x @.H.A.H.x.H.!.H.",
"P n M g w 7 8 8 t 8 M ! O.O.T e s A N A W G H T ~ @.r F 1.6.f.f.q.q.4.S..X7.> W 5.s.@.,.Z.J.u.o.3.w.w.M.N.u.+.d S k.j.H.b.r.,.#.",
"( ( O.~ J V p p 8 h M E }  .O.M M R ] H ~ R A E E ~ w M 0.0.u.u.q.q.9.j.{.Z : A 9.0.d.6.f.p.x.u.3.a.a.w.d.u.#.0 M u.,.` o. .J M ",
") ) ) /  .R h t q k B Z T ~  .Z B T 9.~ ~ ~ A Z E ~ 7 h q.u.h.u.4.q.j.q.N.w : W u.y.x.x.i.p.6.j.a.g.m.*.t.r.S > x <.:.r.p.p.f.@.",
"E W ~ I ~ ~ B t t d M A E A A n n A E A A T H V Z M 1 p ] 6.j.f.q.q.N.4.O.6 : T 5.6.p.v.p.u.1.6.5.%.8.a.u.t.Z , 0 S G K S J o.] ",
"Q ! W E Q R F t 7 5 p z I a f t a z h z F V E R M f ; t F 6.k.;.o.k.C.#.+._ g g ] :.1.y.1.1.>.:.#.J _ d.i.d.M > < 9 s 0 3 9 5 y ",
") ) ) } R T U p * : 2 : = : 1 # 2 z F / ^ D A R T e O 2 p Z ,.n 0 E k.@.T 5.8.G G ' K u.r.#.,.6.6.1._ ] r.r.x 9 n 3.r.3.S x u i ",
"~ ! ~ } ~ R W h $ * X X O ; & $ ; p z R W J D z p = O * - < : = = > S M _ h.V.,.R ` o.p.p.u.r.5.o._ S N #.r.S U 3.h.u.B.T.Y.6.v ",
"Q Q W  .~ T ! z : $ * X $ * & < f z h F R D h 2 * * $ * - * * $ $ * < p +.h.k.1.W ] 1.f.x.f.o._ S E S N W r.#.t.j.s.r.r.k.C.C.K ",
"Q Q ( O.) T U z q * ; ; : : q z ) ( z q 2 2 - < : : : ; : ; ; $ * * < A @.9.d.6.X.J A #.<.1.f.5.E _ B x S _ <.&.k.B.k.t.d.k.k.#.",
"T Q ( ) ! U U F a * ; ; 6 w z Q $.( B t * O * : 4 z C M e < e p e 0 6 M S o.d.h.y.X.c c _ A #.b.j.@.E _ _ N t.@.6.j.C.d.t.C.k.<.",
"T ! ) ) Y F Z z g : * 1 l m P Y $.( Z k = @ * : f )  .) E p c R E  .0 x V G 1.f.c.k.,.V S _ x _ n.s. ._ ] @.B.&._ a.f.<. .V.k.t.",
"z Q ( Q z z T I z 2 ; r Y ( ( | *.$.Q z : $ * w M I E A E Z E X.<.t.S d v H ] 6.r.c.y._ K #.H E u.k.1.r.o.h.m.j._ y.f.,.A ,.u.s.",
"q q f C Q I Z U C 4 2 z ( ( ) $.7.*.Y h 2 * < z S M h Z T H ,.d.k.B.#.d x v c K @.f.r.@.<.f.u.r.r.,.r.t.E 5.k.h.d.t.u.r.A  .]  .",
"C z q t q q z ( Z p p z I P Y ( O.$.P a 6 ; w U T H F Z E S ] u.f.k.V.H a x c G _ i.d.o.H K { <.C.5.@.r.S V t.h.a.t.u.t.S X. . .",
"P I P Y z r 1 q 6 : q z C C Z U Q $.Q h 6 2 f ! ! ~ T B M Z S { t.u.f.@.y S A W J #.k.X.B i S o.h.f.T J V B E s.s.#.<.r.S r._ x ",
"C P Y Q ( P m l 1 O q Z C C A U I O.) k w 8 h U T ~ W H c M V T ] _ ` V y d N v V U t.E x V o.,.f.N.3.v s M v _ r.<. .@.S J 0 % ",
"P C ( ) ( P m ( l = l Y Z C z z C Z Q z 8 p M Z Z E ~ E V V V J V c v < y 8 y d i Z u.s.#.` o.<.j.x.6.e > 9 x V x S X._ _ _ B x ",
"Z P Y Q P P l l q = z Y I l w f r z Q A 6 f I ) T E / / T V M V ] H a > u V d h V M _ o.@. ._ K r.f.] 2 % < 0 s 9 i #._ #.&.#.#.",
"l P P P z z z m f * f Q Z l f g p g I Q q d A } ! R / / _ H M M K V < + 4 H J c X. .<.@._ G _ x K i.o._ @.Z y 9 x 9 +.t.j.#.o.k.",
"l P Y I P z P P f & w Z z z Z g p f z I w g C ! ! H J W _ W S x y 9 + + % h J c _ #.s.u.o.] #.x x V _  .g.t.&.M 9 3 V a.h.E ] p."
};
